<?xml version="1.0" encoding="utf-8"?>
<!-- Generator: Adobe Illustrator 24.2.3, SVG Export Plug-In . SVG Version: 6.00 Build 0)  -->
<svg version="1.1" id="Layer_5" xmlns="http://www.w3.org/2000/svg" xmlns:xlink="http://www.w3.org/1999/xlink" x="0px" y="0px"
	 viewBox="0 0 512 512" style="enable-background:new 0 0 512 512;" xml:space="preserve">
<style type="text/css">
	.st0{fill:#EB2227;}
	.st1{fill:#F6911F;}
</style>
<path class="st0" d="M48,152c-17.7,0-32,14.3-32,32v72h48c28.2,0,51.5-20.9,55.4-48H168v-56H48z M64,216c-8.8,0-16-7.2-16-16
	s7.2-16,16-16s16,7.2,16,16S72.8,216,64,216z"/>
<path class="st1" d="M320,432c-57.3,0-104-46.7-104-104s46.7-104,104-104s104,46.7,104,104S377.3,432,320,432z M320,280
	c-26.5,0-48,21.5-48,48s21.5,48,48,48s48-21.5,48-48S346.5,280,320,280z"/>
<path d="M344,112h-96c-13.2,0-24,10.8-24,24v16c0,13.2,10.8,24,24,24h96c13.2,0,24-10.8,24-24v-16C368,122.8,357.2,112,344,112z
	 M352,152c0,4.4-3.6,8-8,8h-96c-4.4,0-8-3.6-8-8v-16c0-4.4,3.6-8,8-8h96c4.4,0,8,3.6,8,8V152z"/>
<path d="M88,200c0-13.2-10.8-24-24-24s-24,10.8-24,24s10.8,24,24,24S88,213.2,88,200z M64,208c-4.4,0-8-3.6-8-8s3.6-8,8-8s8,3.6,8,8
	S68.4,208,64,208z"/>
<path d="M464,144h-57.8l-8.4-33.7C393.4,92.5,377.4,80,359,80h-7v-8c0-13.2-10.8-24-24-24h-64c-13.2,0-24,10.8-24,24v8h-7
	c-18.4,0-34.3,12.5-38.8,30.3l-8.4,33.7H152v-8c0-13.2-10.8-24-24-24H80c-13.2,0-24,10.8-24,24v8h-8c-22.1,0-40,17.9-40,40v240
	c0,22.1,17.9,40,40,40h416c22.1,0,40-17.9,40-40V184C504,161.9,486.1,144,464,144z M488,184v24h-56c-13.2,0-24-10.8-24-24v-24h56
	C477.2,160,488,170.8,488,184z M256,72c0-4.4,3.6-8,8-8h64c4.4,0,8,3.6,8,8v8h-80V72z M72,136c0-4.4,3.6-8,8-8h48c4.4,0,8,3.6,8,8v8
	H72V136z M24,424V184c0-13.2,10.8-24,24-24h104v288h-32V208h-0.6c-1.7,12-7.3,22.8-15.4,31.1V448H48C34.8,448,24,437.2,24,424z
	 M443.6,384.4c7.1,1.6,12.4,8,12.4,15.6c0,8.8-7.2,16-16,16c-4.7,0-9.1-2.1-12.1-5.6C434.1,402.4,439.3,393.7,443.6,384.4z M320,448
	c-66.2,0-120-53.8-120-120s53.8-120,120-120s120,53.8,120,120S386.2,448,320,448z M464,448h-80.1c12.5-6.7,23.8-15.3,33.7-25.4
	c5.9,5.9,13.9,9.4,22.5,9.4c17.6,0,32-14.4,32-32c0-14.3-9.5-26.4-22.6-30.4c4.2-13.1,6.6-27.1,6.6-41.6c0-75-61-136-136-136
	s-136,61-136,136c0,51.9,29.3,97.1,72.1,120H168V160h30.2l11.5-45.8C212.4,103.5,222,96,233,96h126c11,0,20.6,7.5,23.3,18.2L392,153
	v31c0,22.1,17.9,40,40,40h56v200C488,437.2,477.2,448,464,448L464,448z"/>
<path d="M72,272h16v16H72V272z"/>
<path d="M40,272h16v16H40V272z"/>
<path d="M320,272c-30.9,0-56,25.1-56,56s25.1,56,56,56s56-25.1,56-56S350.9,272,320,272z M320,368c-22.1,0-40-17.9-40-40
	s17.9-40,40-40s40,17.9,40,40S342.1,368,320,368z"/>
<path d="M320,304c-13.2,0-24,10.8-24,24s10.8,24,24,24s24-10.8,24-24S333.2,304,320,304z M320,336c-4.4,0-8-3.6-8-8s3.6-8,8-8
	s8,3.6,8,8S324.4,336,320,336z"/>
<path class="st0" d="M456,176h16v16h-16V176z"/>
<path class="st0" d="M424,176h16v16h-16V176z"/>
<path d="M456,240h16v16h-16V240z"/>
<path d="M184,416h16v16h-16V416z"/>
<path d="M184,176h16v16h-16V176z"/>
<path d="M184,208h16v16h-16V208z"/>
</svg>
