<?xml version="1.0" encoding="utf-8"?>
<!-- Generator: Adobe Illustrator 24.2.3, SVG Export Plug-In . SVG Version: 6.00 Build 0)  -->
<svg version="1.1" id="Layer_1_1_" xmlns="http://www.w3.org/2000/svg" xmlns:xlink="http://www.w3.org/1999/xlink" x="0px" y="0px"
	 viewBox="0 0 512 512" style="enable-background:new 0 0 512 512;" xml:space="preserve">
<style type="text/css">
	.st0{fill:#F6911F;}
	.st1{fill:#EB2227;}
</style>
<g>
	<g>
		<g>
			<g>
				<path class="st0" d="M256,502.3l-46.2-120.2l-10.2-4.2L81.9,430.2l52.3-117.7l-4.2-10.2L9.7,256l120.2-46.2l4.2-10.2L81.8,81.9
					l117.7,52.3l10.2-4.2L256,9.7l46.2,120.2l10.2,4.2l117.7-52.3l-52.3,117.7l4.2,10.2L502.3,256l-120.2,46.2l-4.2,10.2l52.3,117.7
					l-117.7-52.3l-10.2,4.2L256,502.3z"/>
			</g>
		</g>
	</g>
	<g>
		<path d="M241.3,169.2c4.8-0.8,9.7-1.2,14.7-1.2v-16c-5.8,0-11.6,0.5-17.3,1.4L241.3,169.2z"/>
		<path d="M152,256h16c0-37.2,23.6-70.6,58.7-83l-5.3-15.1C179.9,172.6,152,212,152,256z"/>
		<rect x="162.3" y="41.1" transform="matrix(0.924 -0.3824 0.3824 0.924 -5.8178 68.8441)" class="st1" width="16" height="16"/>
		<rect x="41" y="162.3" transform="matrix(0.3828 -0.9238 0.9238 0.3828 -127.0422 150.404)" class="st1" width="16" height="16"/>
		<rect x="41" y="333.7" transform="matrix(0.9238 -0.3828 0.3828 0.9238 -127.0756 44.8037)" class="st1" width="16" height="16"/>
		
			<rect x="162.3" y="454.9" transform="matrix(0.3828 -0.9238 0.9238 0.3828 -322.5924 443.0238)" class="st1" width="16" height="16"/>
		<rect x="333.7" y="455" transform="matrix(0.924 -0.3824 0.3824 0.924 -151.0668 165.8566)" class="st1" width="16" height="16"/>
		
			<rect x="454.9" y="333.7" transform="matrix(0.3828 -0.9238 0.9238 0.3828 -29.9748 638.5828)" class="st1" width="16" height="16"/>
		<path d="M368.5,179.8c-9.7-14.3-22-26.6-36.3-36.3L331,74.9l-49.4,47.6c-8.3-1.6-16.9-2.5-25.7-2.5s-17.3,0.9-25.7,2.5L181,74.9
			l-1.2,68.6c-14.3,9.7-26.6,22-36.3,36.3L74.9,181l47.6,49.4c-1.6,8.3-2.5,16.9-2.5,25.7s0.9,17.3,2.5,25.7L74.9,331l68.6,1.2
			c9.7,14.3,22,26.6,36.3,36.3l1.2,68.6l49.4-47.6c8.3,1.6,16.9,2.5,25.7,2.5s17.3-0.9,25.7-2.5l49.4,47.6l1.2-68.6
			c14.3-9.7,26.6-22,36.3-36.3l68.6-1.2l-47.6-49.4c1.6-8.3,2.5-16.9,2.5-25.7s-0.9-17.3-2.5-25.7l47.6-49.4L368.5,179.8z
			 M315.7,111.9l0.4,22.3c-5.3-2.6-10.7-4.9-16.4-6.8L315.7,111.9z M196.3,111.9l16,15.4c-5.6,1.9-11.1,4.2-16.4,6.8L196.3,111.9z
			 M111.9,196.3l22.2-0.4c-2.6,5.3-4.9,10.7-6.8,16.4L111.9,196.3z M111.9,315.7l15.4-16c1.9,5.6,4.2,11.1,6.8,16.4L111.9,315.7z
			 M196.3,400.1l-0.4-22.3c5.3,2.6,10.7,4.9,16.4,6.8L196.3,400.1z M315.7,400.1l-16-15.4c5.6-1.9,11.1-4.2,16.4-6.8L315.7,400.1z
			 M256,376c-66.2,0-120-53.8-120-120s53.8-120,120-120s120,53.8,120,120S322.2,376,256,376z M400.1,315.7l-22.2,0.4
			c2.6-5.3,4.9-10.7,6.8-16.4L400.1,315.7z M377.8,195.9l22.2,0.4l-15.4,16C382.7,206.7,380.4,201.2,377.8,195.9z"/>
		
			<rect x="454.9" y="162.3" transform="matrix(0.9238 -0.3828 0.3828 0.9238 -29.9217 190.1884)" class="st1" width="16" height="16"/>
		
			<rect x="333.7" y="41.1" transform="matrix(0.3828 -0.9238 0.9238 0.3828 165.5836 345.9604)" class="st1" width="16" height="16"/>
	</g>
</g>
<image style="overflow:visible;" width="99" height="98" xlink:href="23C35739.jpg"  transform="matrix(1.9545 0 0 1.9545 641.5 168.5)">
</image>
</svg>
