<?xml version="1.0" encoding="utf-8"?>
<!-- Generator: Adobe Illustrator 24.2.1, SVG Export Plug-In . SVG Version: 6.00 Build 0)  -->
<svg version="1.1" id="Capa_1" xmlns="http://www.w3.org/2000/svg" xmlns:xlink="http://www.w3.org/1999/xlink" x="0px" y="0px"
	 viewBox="0 0 496 496" style="enable-background:new 0 0 496 496;" xml:space="preserve">
<style type="text/css">
	.st0{fill:#F6911F;}
	.st1{fill:#EA2227;}
	.st2{fill:#231F20;}
</style>
<path class="st0" d="M248,273.7c-61.8,0-112-48.7-112-108.6S186.2,56.5,248,56.5s112,48.7,112,108.6S309.8,273.7,248,273.7z"/>
<path d="M319.7,130.6c-3.2-6.2-7.2-12-12.1-17.2l-11.9,10.3c3.8,4.2,7.1,8.8,9.6,13.8L319.7,130.6z"/>
<path d="M328,165.1c0-5.8-0.7-11.6-2-17.2l-15.6,3.4c1,4.5,1.6,9.1,1.6,13.8c0,34.2-28.7,62.1-64,62.1v15.5
	C292.1,242.7,328,207.9,328,165.1L328,165.1z"/>
<path class="st1" d="M272,289.2h16v15.5h-16V289.2z"/>
<path class="st1" d="M208,289.2h16v15.5h-16V289.2z"/>
<path class="st1" d="M240,289.2h16v15.5h-16V289.2z"/>
<path class="st2" d="M302.5,353.4c16.1-28.5,36.9-56.1,62.3-82.4c27.9-28.8,43.2-66.4,43.2-105.9c0-44.1-19.4-86.2-53.3-115.6
	C320.3,19.7,275.9,6,229.8,11C155.6,18.9,96.3,77,88.8,149.1c-4.7,45.2,11,89.9,43,122.6c25.4,26,46.1,53.3,62,81.7
	C125.1,358.6,56,374.7,56,405.6v31c0,35.6,96.6,54.3,192,54.3s192-18.6,192-54.3v-31C440,374.8,371.1,358.7,302.5,353.4L302.5,353.4
	z M104.8,150.6c6.7-64.8,60-117.1,126.8-124.2c5.6-0.6,11.2-0.9,16.7-0.9c35.5,0,69.1,12.3,95.8,35.6c30.5,26.5,48,64.4,48,104.1
	c0,35.5-13.8,69.4-38.9,95.3c-40,41.4-69.3,85.9-86.9,132.4l-4.2,11c-2.2,5.7-7.8,9.5-14,9.5s-11.9-3.8-14-9.5l-5.2-13.7
	c-17.3-45.5-46-89-85.3-129.1C114.6,231.6,100.5,191.3,104.8,150.6L104.8,150.6z M201.8,368.4c4.4,9,8.5,18,12,27.1l5.2,13.7
	c4.5,11.7,16.1,19.6,29,19.6s24.6-7.9,29-19.6l4.2-11c3.8-10,8.3-19.9,13.2-29.8c84.5,5.6,129.6,25,129.6,37.2
	c0,15.8-68.6,38.8-176,38.8s-176-23-176-38.8C72,393.4,117.1,374,201.8,368.4L201.8,368.4z M248,475.4c-107.4,0-176-23-176-38.8
	v-7.9c31.3,20.5,104,31.2,176,31.2s144.7-10.6,176-31.2v7.9C424,452.4,355.4,475.4,248,475.4L248,475.4z"/>
</svg>
