<?xml version="1.0" encoding="utf-8"?>
<!-- Generator: Adobe Illustrator 24.2.3, SVG Export Plug-In . SVG Version: 6.00 Build 0)  -->
<svg version="1.1" id="Capa_1" xmlns="http://www.w3.org/2000/svg" xmlns:xlink="http://www.w3.org/1999/xlink" x="0px" y="0px"
	 viewBox="0 0 496 496" style="enable-background:new 0 0 496 496;" xml:space="preserve">
<style type="text/css">
	.st0{fill:#F6911F;}
	.st1{fill:#EB2227;}
</style>
<rect x="16" y="80" class="st0" width="464" height="144"/>
<g>
	<path d="M464,272h-72v-48h-16v48h-32v-48h-16v48H168v-48h-16v48h-32v-48h-16v48H32c-17.6,0-32,14.4-32,32s14.4,32,32,32v160h432
		V336c17.6,0,32-14.4,32-32S481.6,272,464,272z M304,480h-48V368.6c27.1,3.9,48,27.2,48,55.4V480z M240,480h-48v-56
		c0-28.2,20.9-51.5,48-55.4V480z M448,480H320v-56c0-39.7-32.3-72-72-72s-72,32.3-72,72v56H48V336h400V480z M464,320H32
		c-8.8,0-16-7.2-16-16s7.2-16,16-16h432c8.8,0,16,7.2,16,16S472.8,320,464,320z"/>
	<path class="st1" d="M64,192h96v-80H64V192z"/>
	<path d="M384,80h16V48h48V29.6L428.3,0h-72.6L336,29.6V48h48V80z M364.3,16h55.4l10.7,16h-76.8L364.3,16z"/>
	<path d="M240,80h16V48h48V29.6L284.3,0h-72.6L192,29.6V48h48V80z M220.3,16h55.4l10.7,16h-76.8L220.3,16z"/>
	<path d="M96,80h16V48h48V29.6L140.3,0H67.7L48,29.6V48h48V80z M76.3,16h55.4l10.7,16H65.6L76.3,16z"/>
	<rect x="208" y="112" width="224" height="16"/>
	<rect x="176" y="112" width="16" height="16"/>
	<rect x="176" y="144" width="256" height="16"/>
	<rect x="176" y="176" width="224" height="16"/>
	<rect x="416" y="176" width="16" height="16"/>
	<path d="M432,352h-96v80h96V352z M416,384h-24v-16h24V384z M376,368v16h-24v-16H376z M352,400h24v16h-24V400z M392,416v-16h24v16
		H392z"/>
	<path d="M160,352H64v80h96V352z M144,384h-24v-16h24V384z M104,368v16H80v-16H104z M80,400h24v16H80V400z M120,416v-16h24v16H120z"
		/>
</g>
</svg>
