<?xml version="1.0" encoding="utf-8"?>
<!-- Generator: Adobe Illustrator 24.2.3, SVG Export Plug-In . SVG Version: 6.00 Build 0)  -->
<svg version="1.1" id="Capa_1" xmlns="http://www.w3.org/2000/svg" xmlns:xlink="http://www.w3.org/1999/xlink" x="0px" y="0px"
	 viewBox="0 0 496 496" style="enable-background:new 0 0 496 496;" xml:space="preserve">
<style type="text/css">
	.st0{fill:#EB2227;}
	.st1{fill:#F6911F;}
</style>
<rect x="64" y="48" class="st0" width="184" height="96"/>
<rect x="248" y="48" class="st1" width="184" height="96"/>
<path d="M496,208h-48v-16.8c18.2-3.7,32-19.9,32-39.2V40c0-22.1-17.9-40-40-40H56C33.9,0,16,17.9,16,40v112
	c0,19.3,13.8,35.5,32,39.2V208H0v48h16v240h464V256h16V208z M416,208v-16h16v16H416z M400,192v16H96v-16H400z M32,152V40
	c0-13.2,10.8-24,24-24h384c13.2,0,24,10.8,24,24v112c0,13.2-10.8,24-24,24H56C42.8,176,32,165.2,32,152z M64,192h16v16H64V192z
	 M320,352v128h-64V352H320z M160,336v-16h176v16H160z M240,352v128h-64V352H240z M480,240h-32v16h16v224H336V352h16v-48H144v48h16
	v128H32V256h400v-16H16v-16h464V240z"/>
<path d="M48,464h80V272H48V464z M64,448v-40h48v40H64z M64,392v-40h48v40H64z M112,288v48H64v-48H112z"/>
<path d="M368,464h80V272h-80V464z M384,448v-40h48v40H384z M384,392v-40h48v40H384z M432,288v48h-48v-48H432z"/>
<rect x="144" y="272" width="208" height="16"/>
<polygon points="64,48 88,48 88,32 48,32 48,72 64,72 "/>
<polygon points="432,72 448,72 448,32 408,32 408,48 432,48 "/>
<polygon points="448,120 432,120 432,144 408,144 408,160 448,160 "/>
<polygon points="88,144 64,144 64,120 48,120 48,160 88,160 "/>
<rect x="176" y="72" width="144" height="16"/>
<rect x="176" y="104" width="16" height="16"/>
<rect x="208" y="104" width="16" height="16"/>
<rect x="240" y="104" width="16" height="16"/>
<rect x="272" y="104" width="16" height="16"/>
<rect x="304" y="104" width="16" height="16"/>
</svg>
