<?xml version="1.0" encoding="UTF-8"?>
<svg id="Layer_1" xmlns="http://www.w3.org/2000/svg" xmlns:xlink="http://www.w3.org/1999/xlink" version="1.1" viewBox="0 0 1920 1080">
  <!-- Generator: Adobe Illustrator 29.0.0, SVG Export Plug-In . SVG Version: 2.1.0 Build 186)  -->
  <defs>
    <style>
      .st0 {
        fill: #fff;
      }

      .st1 {
        fill: url(#Degradado_sin_nombre_2);
      }

      .st2 {
        fill: url(#Degradado_sin_nombre_18);
      }

      .st3 {
        fill: #ea2227;
      }
    </style>
    <linearGradient id="Degradado_sin_nombre_18" data-name="Degradado sin nombre 18" x1="220.1" y1="337.96" x2="220.1" y2="172.42" gradientUnits="userSpaceOnUse">
      <stop offset="0" stop-color="#f69220"/>
      <stop offset=".02" stop-color="#ef9125"/>
      <stop offset=".14" stop-color="#cd8c42"/>
      <stop offset=".27" stop-color="#b1885a"/>
      <stop offset=".41" stop-color="#9b846c"/>
      <stop offset=".57" stop-color="#8b8279"/>
      <stop offset=".75" stop-color="#828181"/>
      <stop offset="1" stop-color="#808184"/>
    </linearGradient>
    <linearGradient id="Degradado_sin_nombre_2" data-name="Degradado sin nombre 2" x1="220.1" y1="525.51" x2="220.1" y2="359.97" gradientUnits="userSpaceOnUse">
      <stop offset="0" stop-color="#ea2227"/>
      <stop offset=".11" stop-color="#ec3c25"/>
      <stop offset=".26" stop-color="#f05b23"/>
      <stop offset=".42" stop-color="#f27321"/>
      <stop offset=".59" stop-color="#f48420"/>
      <stop offset=".78" stop-color="#f58e20"/>
      <stop offset="1" stop-color="#f69220"/>
    </linearGradient>
  </defs>
  <g>
    <path class="st0" d="M844.24,593.98c10.03,0,19.06,3.76,27.09,11.28,8.02,7.52,12.03,17.06,12.03,28.59,0,4.51-1.12,9.28-3.39,14.3-2.26,5.02-7.4,11.55-15.42,19.56-19.07,19.57-43.14,35.73-72.23,48.53-29.09,12.79-61.69,19.19-97.8,19.19s-70.85-7.03-102.69-21.07c-31.86-14.04-59.69-33.6-83.51-58.68-23.83-25.08-42.64-54.66-56.43-88.77-13.8-34.1-20.69-71.48-20.69-112.1s6.77-78.12,20.31-112.47c13.54-34.35,32.22-64.08,56.05-89.15,23.81-25.08,51.65-44.77,83.51-59.06,31.85-14.3,66.08-21.44,102.7-21.44,32.6,0,62.18,5.14,88.77,15.42,26.58,10.29,48.64,23.46,66.21,39.51,8.52,7.52,14.29,13.92,17.31,19.18,3.01,5.27,4.51,10.66,4.51,16.18,0,9.53-3.51,18.06-10.53,25.58-7.03,7.52-15.8,11.28-26.34,11.28-4.51,0-9.16-.99-13.92-3-4.78-2-10.42-5.76-16.93-11.28-12.54-11.53-28.1-20.7-46.64-27.47-18.56-6.76-38.37-10.15-59.44-10.15-25.09,0-48.65,5.15-70.72,15.43-22.07,10.28-41.38,24.45-57.93,42.51-16.55,18.06-29.72,39.39-39.5,63.96-9.78,24.58-14.67,51.41-14.67,80.5s4.89,56.42,14.67,82c9.78,25.58,22.95,47.91,39.5,66.96,16.55,19.07,35.98,34.11,58.31,45.15,22.31,11.03,46.01,16.55,71.1,16.55,23.57,0,45.01-4.51,64.32-13.54,19.3-9.03,35.23-20.32,47.77-33.86,7.02-7.52,13.16-12.65,18.43-15.41,5.27-2.75,10.65-4.14,16.18-4.14Z"/>
    <path class="st0" d="M1100.79,217.8c4.01-13.55,11.66-24.45,22.95-32.72,11.28-8.28,23.94-12.42,37.99-12.42s26.83,4.01,38.37,12.03c11.53,8.02,19.31,19.07,23.32,33.1l144.45,462.7c1.51,4.51,2.26,8.77,2.26,12.78,0,11.55-4.02,21.33-12.04,29.34-8.03,8.02-17.81,12.05-29.34,12.05-9.53,0-18.06-2.77-25.58-8.28-7.52-5.51-12.55-12.78-15.05-21.82l-24.83-86.51h-202.38l-24.82,86.51c-2.52,9.03-7.41,16.31-14.67,21.82-7.28,5.51-15.68,8.28-25.2,8.28-11.55,0-21.32-4.02-29.34-12.05-8.03-8.01-12.04-17.55-12.04-28.59,0-4.51.75-9.02,2.26-13.53l143.7-462.7ZM1239.97,542.82l-77.49-277.62-77.5,277.62h154.98Z"/>
    <path class="st0" d="M1616.9,172.66c40.63,0,74.11,6.89,100.44,20.69,26.34,13.8,45.52,30.22,57.56,49.28,3.5,5.52,5.89,10.53,7.15,15.05,1.24,4.51,1.88,8.78,1.88,12.79,0,11.55-4.27,21.95-12.79,31.22-8.54,9.29-19.32,13.93-32.35,13.93-8.53,0-16.55-2.26-24.07-6.77-7.52-4.51-13.3-11.02-17.31-19.56-5.52-10.53-15.05-20.06-28.59-28.59-13.55-8.52-32.11-12.8-55.68-12.8-16.06,0-29.72,2.14-41,6.39-11.29,4.27-20.44,9.78-27.46,16.56-7.03,6.77-12.04,14.18-15.05,22.2-3.01,8.02-4.51,15.8-4.51,23.32,0,11.55,3.12,21.2,9.4,28.96,6.27,7.78,14.91,14.68,25.95,20.7,11.03,6.01,23.95,11.53,38.75,16.55,14.79,5.02,30.97,10.04,48.53,15.05,19.06,5.52,38.99,11.79,59.81,18.81,20.81,7.03,39.88,16.56,57.18,28.59,17.31,12.03,31.6,27.22,42.89,45.52,11.28,18.32,16.93,41.27,16.93,68.85,0,24.07-4.64,46.77-13.92,68.09-9.28,21.32-22.83,39.88-40.63,55.67-17.81,15.8-39.5,28.34-65.08,37.61-25.58,9.27-54.92,13.93-88.02,13.93-49.16,0-90.04-9.53-122.63-28.59-32.61-19.06-55.68-43.38-69.22-72.98-3.52-7.52-5.27-14.3-5.27-20.32,0-11.54,4.14-21.69,12.41-30.47,8.27-8.76,18.93-13.17,31.97-13.17,19.06,0,32.85,10.28,41.38,30.85,7.02,16.55,20.06,30.72,39.13,42.51,19.05,11.78,43.88,17.68,74.48,17.68,36.61,0,65.46-8.65,86.52-25.95,21.06-17.31,31.6-39.25,31.6-65.84,0-15.05-3.39-27.71-10.16-38-6.77-10.27-15.93-19.06-27.46-26.33-11.54-7.26-24.71-13.28-39.5-18.06-14.8-4.76-29.98-9.4-45.52-13.92-20.57-6.02-41.51-12.67-62.83-19.94-21.32-7.27-40.51-16.43-57.55-27.46-17.06-11.04-30.98-24.83-41.76-41.39-10.79-16.55-16.18-37.11-16.18-61.69,0-19.56,3.76-38.23,11.28-56.04,7.52-17.81,18.81-33.6,33.86-47.4,15.05-13.8,33.85-24.83,56.43-33.1,22.57-8.28,48.9-12.42,79-12.42Z"/>
  </g>
  <g>
    <path class="st0" d="M115.34,903.07c-4.61-3-8.21-7.11-10.81-12.32-2.59-5.22-3.89-11.05-3.89-17.49s1.29-12.1,3.89-17.35c2.59-5.24,6.2-9.38,10.81-12.41,4.62-3.03,9.86-4.54,15.74-4.54,6.19,0,11.5,1.41,15.93,4.26,4.42,2.85,7.71,6.79,9.86,11.85.32.63.41,1.26.28,1.89-.12.64-.44,1.15-.95,1.57-.51.41-1.08.62-1.71.62-.51,0-.97-.14-1.37-.42-.41-.28-.71-.62-.9-1-2.02-4.42-4.77-7.84-8.25-10.24-3.48-2.39-7.71-3.6-12.7-3.6s-9.21,1.33-13.03,3.98c-3.82,2.65-6.81,6.23-8.96,10.72-2.15,4.48-3.22,9.38-3.22,14.69s1.08,10.32,3.22,14.84c2.15,4.51,5.15,8.07,9.01,10.66,3.85,2.59,8.18,3.88,12.99,3.88,5.18,0,9.48-1.2,12.89-3.6,3.41-2.4,6.22-6.03,8.44-10.9.51-1.01,1.29-1.51,2.37-1.51.63,0,1.19.17,1.66.52.47.35.79.82.95,1.41.16.61.08,1.22-.23,1.85-2.53,5.63-5.96,9.89-10.28,12.81-4.33,2.9-9.62,4.36-15.88,4.36s-11.22-1.5-15.83-4.51Z"/>
    <path class="st0" d="M193.07,902.98c-4.81-3.07-8.55-7.21-11.24-12.43-2.69-5.21-4.03-10.98-4.03-17.3s1.34-12,4.03-17.25c2.69-5.24,6.43-9.39,11.24-12.46,4.8-3.07,10.23-4.6,16.3-4.6s11.52,1.53,16.36,4.6c4.83,3.06,8.59,7.22,11.28,12.46,2.69,5.25,4.03,11,4.03,17.25s-1.34,12.09-4.03,17.3c-2.69,5.22-6.45,9.36-11.28,12.43-4.84,3.07-10.28,4.6-16.36,4.6s-11.5-1.53-16.3-4.6ZM222.78,898.71c4.01-2.62,7.16-6.19,9.43-10.71,2.28-4.52,3.41-9.44,3.41-14.74s-1.14-10.21-3.41-14.69c-2.27-4.49-5.42-8.07-9.43-10.72-4.01-2.65-8.48-3.98-13.42-3.98s-9.4,1.33-13.41,3.98c-4.02,2.65-7.14,6.23-9.39,10.72-2.24,4.48-3.37,9.38-3.37,14.69s1.13,10.22,3.37,14.74c2.24,4.52,5.37,8.09,9.39,10.71,4.01,2.63,8.48,3.94,13.41,3.94s9.4-1.3,13.42-3.94Z"/>
    <path class="st0" d="M268.09,840.56c.66-.63,1.43-.95,2.32-.95.57,0,1.1.12,1.61.38.51.25.92.6,1.23,1.03l41.04,58.59-1.33.38v-57.92c0-.7.24-1.27.71-1.75.47-.48,1.06-.71,1.76-.71.76,0,1.38.23,1.85.71.47.48.71,1.05.71,1.75v62.1c0,.75-.29,1.4-.85,1.93-.57.54-1.23.81-1.99.81-.57,0-1.04-.13-1.42-.38-.38-.25-.7-.58-.95-.95l-41.99-59.91,1.23-.38v59.15c0,.7-.23,1.28-.71,1.75-.48.48-1.06.72-1.76.72s-1.28-.24-1.76-.72c-.47-.47-.71-1.05-.71-1.75v-61.52c0-.95.33-1.74.99-2.37Z"/>
    <path class="st0" d="M341.18,840.8c.47-.48,1.06-.72,1.75-.72h46.64c.69,0,1.28.24,1.75.72.47.47.71,1.05.71,1.75s-.24,1.28-.71,1.75c-.47.48-1.06.72-1.75.72h-20.67v59.24c0,.76-.27,1.39-.8,1.9-.54.5-1.18.76-1.95.76-.7,0-1.29-.27-1.8-.81-.51-.53-.76-1.15-.76-1.85v-59.24h-20.67c-.7,0-1.28-.24-1.75-.72-.47-.47-.71-1.05-.71-1.75s.24-1.28.71-1.75Z"/>
    <path class="st0" d="M415.31,840.74c.48-.44,1.13-.66,1.95-.66h39.53c.7,0,1.28.24,1.76.72.47.47.71,1.05.71,1.75s-.24,1.28-.71,1.75c-.47.48-1.06.72-1.76.72h-36.88v24.83h34.13c.63,0,1.18.24,1.66.72.47.47.71,1.05.71,1.75s-.23,1.26-.71,1.71c-.48.45-1.03.66-1.66.66h-34.13v26.83h37.73c.7,0,1.28.23,1.76.71.47.48.71,1.05.71,1.75s-.23,1.28-.71,1.76c-.48.47-1.06.71-1.76.71h-40.38c-.82,0-1.47-.24-1.95-.71-.47-.48-.71-1.13-.71-1.95v-61.05c0-.88.23-1.54.71-1.99Z"/>
    <path class="st0" d="M486.69,840.56c.66-.63,1.43-.95,2.32-.95.57,0,1.1.12,1.61.38.51.25.92.6,1.23,1.03l41.04,58.59-1.33.38v-57.92c0-.7.24-1.27.71-1.75.47-.48,1.06-.71,1.76-.71.76,0,1.38.23,1.85.71s.71,1.05.71,1.75v62.1c0,.75-.29,1.4-.85,1.93-.57.54-1.23.81-1.99.81-.57,0-1.04-.13-1.42-.38-.38-.25-.7-.58-.95-.95l-41.99-59.91,1.23-.38v59.15c0,.7-.23,1.28-.71,1.75-.48.48-1.06.72-1.76.72s-1.28-.24-1.76-.72c-.47-.47-.71-1.05-.71-1.75v-61.52c0-.95.33-1.74.99-2.37Z"/>
    <path class="st0" d="M568.16,840.36c.51-.5,1.1-.75,1.8-.75.76,0,1.41.25,1.95.75.54.51.8,1.14.8,1.9v61.99c0,.76-.27,1.39-.8,1.9-.54.5-1.18.76-1.95.76-.7,0-1.29-.27-1.8-.81-.51-.53-.76-1.15-.76-1.85v-61.99c0-.76.25-1.39.76-1.9Z"/>
    <path class="st0" d="M604.32,840.74c.48-.44,1.13-.66,1.95-.66h19.43c6.83,0,12.78,1.41,17.87,4.22,5.09,2.82,8.97,6.65,11.66,11.52,2.69,4.86,4.03,10.21,4.03,16.01,0,6.39-1.36,12.22-4.07,17.49-2.72,5.28-6.6,9.45-11.66,12.51-5.06,3.07-11,4.6-17.82,4.6h-19.43c-.82,0-1.47-.24-1.95-.71-.47-.48-.71-1.13-.71-1.95v-61.05c0-.88.23-1.54.71-1.99ZM608.92,845.01v56.5h16.78c5.75,0,10.76-1.33,15.02-3.99,4.27-2.65,7.52-6.24,9.76-10.75,2.24-4.52,3.36-9.5,3.36-14.94,0-4.92-1.12-9.43-3.36-13.5-2.24-4.08-5.5-7.32-9.76-9.72-4.27-2.4-9.27-3.6-15.02-3.6h-16.78Z"/>
    <path class="st0" d="M695.75,902.98c-4.81-3.07-8.55-7.21-11.24-12.43-2.69-5.21-4.03-10.98-4.03-17.3s1.34-12,4.03-17.25c2.69-5.24,6.43-9.39,11.24-12.46,4.8-3.07,10.24-4.6,16.3-4.6s11.52,1.53,16.36,4.6c4.83,3.06,8.59,7.22,11.28,12.46,2.69,5.25,4.03,11,4.03,17.25s-1.34,12.09-4.03,17.3c-2.69,5.22-6.45,9.36-11.28,12.43-4.84,3.07-10.28,4.6-16.36,4.6s-11.5-1.53-16.3-4.6ZM725.47,898.71c4.01-2.62,7.16-6.19,9.43-10.71,2.28-4.52,3.41-9.44,3.41-14.74s-1.14-10.21-3.41-14.69c-2.27-4.49-5.42-8.07-9.43-10.72-4.01-2.65-8.49-3.98-13.42-3.98s-9.4,1.33-13.41,3.98c-4.02,2.65-7.14,6.23-9.39,10.72-2.24,4.48-3.36,9.38-3.36,14.69s1.13,10.22,3.36,14.74c2.24,4.52,5.37,8.09,9.39,10.71,4.01,2.63,8.49,3.94,13.41,3.94s9.4-1.3,13.42-3.94Z"/>
    <path class="st0" d="M809.64,897.38c-1.48,2.95-3.87,5.37-7.16,7.3-3.28,1.92-7.46,2.89-12.51,2.89-5.5,0-10.38-.99-14.64-2.95-4.27-1.96-7.76-4.33-10.48-7.11-.32-.25-.57-.57-.76-.95-.19-.38-.28-.76-.28-1.13,0-.76.27-1.39.8-1.9.54-.5,1.15-.76,1.85-.76.76,0,1.39.26,1.9.76,2.34,2.47,5.32,4.63,8.96,6.49,3.63,1.87,7.85,2.8,12.65,2.8,4.04,0,7.32-.76,9.81-2.28,2.5-1.51,4.25-3.35,5.26-5.49,1.01-2.15,1.52-4.27,1.52-6.36,0-3.66-1.15-6.46-3.46-8.38-2.31-1.94-5.83-3.49-10.57-4.7l-9.48-2.47c-4.86-1.26-8.86-3.15-11.99-5.69-3.13-2.52-4.69-6.35-4.69-11.47,0-2.9.74-5.65,2.23-8.24,1.48-2.6,3.82-4.71,7.01-6.36,3.19-1.64,7.09-2.46,11.71-2.46s8.48.8,12.18,2.41c3.7,1.61,6.9,3.8,9.62,6.59.32.25.55.55.71.9.16.35.23.74.23,1.19,0,.7-.23,1.29-.71,1.8-.48.5-1.09.75-1.85.75s-1.39-.19-1.89-.57c-2.34-2.47-5.07-4.46-8.2-5.97-3.12-1.52-6.49-2.28-10.09-2.28s-6.69.59-9.06,1.76c-2.37,1.16-4.07,2.66-5.11,4.5-1.04,1.83-1.57,3.73-1.57,5.69,0,3.66,1.14,6.41,3.41,8.25,2.27,1.83,5.4,3.25,9.38,4.26l10.33,2.65c5.63,1.39,9.89,3.45,12.8,6.16,2.91,2.72,4.36,6.51,4.36,11.37,0,3.03-.74,6.02-2.23,8.96Z"/>
    <path class="st0" d="M850.21,877.11c-1.93-1.76-2.89-3.95-2.89-6.53s.95-4.85,2.84-6.59c1.9-1.74,4.2-2.61,6.92-2.61s5.04.87,6.97,2.61c1.92,1.74,2.89,3.94,2.89,6.59s-.97,4.77-2.89,6.53c-1.93,1.77-4.25,2.66-6.97,2.66s-4.95-.89-6.87-2.66Z"/>
    <path class="st0" d="M899.88,906.44c-.41.32-.9.48-1.47.48-.63,0-1.15-.19-1.56-.58-.41-.38-.68-.84-.81-1.37-.12-.53-.09-1.05.1-1.57l24.93-61.34c.32-.75.78-1.36,1.37-1.79.6-.45,1.34-.66,2.23-.66.76,0,1.47.22,2.13.66.67.44,1.15,1.04,1.47,1.79l23.88,61.15c.26.57.31,1.13.15,1.7-.16.58-.48,1.04-.95,1.42-.47.38-1.06.58-1.75.58-.57,0-1.08-.17-1.52-.52-.45-.35-.76-.77-.95-1.28l-6.82-17.35h-32.33l-7.21,17.45c-.18.5-.49.91-.9,1.23ZM938.51,882.93l-13.93-36.41-14.69,36.41h28.62Z"/>
    <path class="st0" d="M977.6,840.74c.48-.44,1.12-.66,1.95-.66h19.43c6.83,0,12.78,1.41,17.87,4.22,5.09,2.82,8.97,6.65,11.66,11.52,2.69,4.86,4.03,10.21,4.03,16.01,0,6.39-1.36,12.22-4.07,17.49-2.72,5.28-6.6,9.45-11.66,12.51-5.06,3.07-11,4.6-17.82,4.6h-19.43c-.82,0-1.47-.24-1.95-.71-.47-.48-.71-1.13-.71-1.95v-61.05c0-.88.23-1.54.71-1.99ZM982.2,845.01v56.5h16.78c5.75,0,10.76-1.33,15.02-3.99,4.27-2.65,7.52-6.24,9.76-10.75,2.25-4.52,3.37-9.5,3.37-14.94,0-4.92-1.12-9.43-3.37-13.5-2.24-4.08-5.49-7.32-9.76-9.72-4.27-2.4-9.27-3.6-15.02-3.6h-16.78Z"/>
    <path class="st0" d="M1050.79,841.6c.16-.58.46-1.04.9-1.42.44-.38.98-.57,1.61-.57.57,0,1.1.17,1.61.52.5.35.85.77,1.04,1.27l22.94,60.57h-1.61l23.42-60.66c.19-.51.49-.93.9-1.24.41-.32.87-.47,1.37-.47.7,0,1.25.18,1.66.57.41.38.7.84.85,1.37.16.54.15,1.03-.04,1.48l-24.08,61.52c-.32.75-.77,1.34-1.38,1.75-.6.41-1.31.62-2.13.62-.76,0-1.44-.23-2.04-.66-.6-.45-1.06-1.04-1.37-1.8l-23.6-61.24c-.19-.5-.21-1.04-.05-1.61Z"/>
    <path class="st0" d="M1130.41,840.74c.48-.44,1.13-.66,1.95-.66h39.53c.7,0,1.28.24,1.76.72.47.47.71,1.05.71,1.75s-.24,1.28-.71,1.75c-.47.48-1.06.72-1.76.72h-36.88v24.83h34.12c.63,0,1.19.24,1.66.72.47.47.71,1.05.71,1.75s-.23,1.26-.71,1.71c-.48.45-1.03.66-1.66.66h-34.12v26.83h37.73c.7,0,1.28.23,1.76.71.47.48.71,1.05.71,1.75s-.23,1.28-.71,1.76c-.48.47-1.06.71-1.76.71h-40.38c-.82,0-1.47-.24-1.95-.71-.47-.48-.71-1.13-.71-1.95v-61.05c0-.88.23-1.54.71-1.99Z"/>
    <path class="st0" d="M1201.55,906.2c-.51-.53-.76-1.15-.76-1.85v-61.62c0-.88.23-1.54.71-1.99.48-.44,1.12-.66,1.95-.66h22.56c4.68,0,8.76.9,12.23,2.71,3.47,1.79,6.16,4.2,8.06,7.2,1.9,3.01,2.85,6.27,2.85,9.82,0,4.04-.95,7.73-2.85,11.05-1.89,3.32-4.63,5.92-8.2,7.82-3.57,1.9-7.72,2.85-12.46,2.85h-19.53v22.84c0,.76-.27,1.39-.8,1.9-.54.5-1.19.75-1.95.75-.7,0-1.29-.26-1.8-.8ZM1235.34,874.44c2.69-1.48,4.76-3.5,6.21-6.07,1.45-2.55,2.18-5.41,2.18-8.58,0-2.65-.71-5.12-2.14-7.39-1.42-2.27-3.47-4.09-6.16-5.46-2.69-1.35-5.8-2.03-9.34-2.03h-20v31.75h19.81c3.6,0,6.75-.74,9.43-2.23ZM1243.74,906.54c-.45-.25-.79-.6-1.04-1.04l-17.06-25.59,4.64-2.66,17.16,25.6c.32.5.42,1.08.33,1.71-.1.63-.38,1.19-.85,1.65-.47.48-1.09.72-1.85.72-.45,0-.89-.13-1.33-.38Z"/>
    <path class="st0" d="M1266.06,840.8c.47-.48,1.05-.72,1.75-.72h46.64c.69,0,1.28.24,1.75.72.47.47.71,1.05.71,1.75s-.24,1.28-.71,1.75c-.47.48-1.06.72-1.75.72h-20.67v59.24c0,.76-.27,1.39-.8,1.9-.54.5-1.18.76-1.95.76-.7,0-1.29-.27-1.8-.81-.51-.53-.76-1.15-.76-1.85v-59.24h-20.67c-.7,0-1.28-.24-1.75-.72-.47-.47-.71-1.05-.71-1.75s.24-1.28.71-1.75Z"/>
    <path class="st0" d="M1340.23,840.36c.51-.5,1.1-.75,1.8-.75.76,0,1.41.25,1.95.75.54.51.8,1.14.8,1.9v61.99c0,.76-.27,1.39-.8,1.9-.54.5-1.18.76-1.95.76-.7,0-1.29-.27-1.8-.81-.51-.53-.76-1.15-.76-1.85v-61.99c0-.76.25-1.39.76-1.9Z"/>
    <path class="st0" d="M1415.55,897.38c-1.48,2.95-3.87,5.37-7.16,7.3-3.28,1.92-7.46,2.89-12.51,2.89-5.49,0-10.38-.99-14.64-2.95-4.27-1.96-7.76-4.33-10.47-7.11-.32-.25-.57-.57-.76-.95-.19-.38-.28-.76-.28-1.13,0-.76.27-1.39.8-1.9.54-.5,1.15-.76,1.85-.76.76,0,1.39.26,1.9.76,2.34,2.47,5.32,4.63,8.96,6.49,3.63,1.87,7.85,2.8,12.65,2.8,4.04,0,7.32-.76,9.81-2.28,2.49-1.51,4.25-3.35,5.26-5.49,1.01-2.15,1.52-4.27,1.52-6.36,0-3.66-1.15-6.46-3.46-8.38-2.31-1.94-5.83-3.49-10.57-4.7l-9.48-2.47c-4.86-1.26-8.86-3.15-11.99-5.69-3.13-2.52-4.69-6.35-4.69-11.47,0-2.9.74-5.65,2.23-8.24,1.48-2.6,3.82-4.71,7.01-6.36,3.19-1.64,7.09-2.46,11.71-2.46s8.48.8,12.18,2.41c3.7,1.61,6.9,3.8,9.62,6.59.32.25.55.55.71.9.16.35.23.74.23,1.19,0,.7-.23,1.29-.71,1.8-.48.5-1.09.75-1.85.75s-1.39-.19-1.89-.57c-2.34-2.47-5.07-4.46-8.2-5.97-3.13-1.52-6.49-2.28-10.09-2.28s-6.69.59-9.05,1.76c-2.37,1.16-4.07,2.66-5.12,4.5-1.04,1.83-1.57,3.73-1.57,5.69,0,3.66,1.14,6.41,3.41,8.25,2.27,1.83,5.4,3.25,9.38,4.26l10.33,2.65c5.63,1.39,9.89,3.45,12.8,6.16,2.91,2.72,4.36,6.51,4.36,11.37,0,3.03-.74,6.02-2.23,8.96Z"/>
    <path class="st0" d="M1444.31,840.36c.51-.5,1.1-.75,1.8-.75.76,0,1.41.25,1.95.75.54.51.8,1.14.8,1.9v61.99c0,.76-.27,1.39-.8,1.9-.54.5-1.18.76-1.95.76-.7,0-1.29-.27-1.8-.81-.51-.53-.76-1.15-.76-1.85v-61.99c0-.76.25-1.39.76-1.9Z"/>
    <path class="st0" d="M1480.76,840.56c.66-.63,1.43-.95,2.32-.95.57,0,1.1.12,1.61.38.51.25.92.6,1.23,1.03l41.04,58.59-1.33.38v-57.92c0-.7.24-1.27.71-1.75.47-.48,1.06-.71,1.76-.71.76,0,1.38.23,1.85.71.47.48.71,1.05.71,1.75v62.1c0,.75-.29,1.4-.85,1.93-.57.54-1.23.81-1.99.81-.56,0-1.04-.13-1.42-.38-.38-.25-.7-.58-.95-.95l-41.99-59.91,1.23-.38v59.15c0,.7-.23,1.28-.71,1.75-.48.48-1.06.72-1.76.72s-1.28-.24-1.76-.72c-.47-.47-.71-1.05-.71-1.75v-61.52c0-.95.33-1.74,1-2.37Z"/>
    <path class="st0" d="M1571.29,903.22c-4.71-2.91-8.31-6.96-10.81-12.14-2.5-5.18-3.74-11.09-3.74-17.72s1.37-12.48,4.12-17.73c2.75-5.24,6.51-9.34,11.28-12.27,4.77-2.94,10.03-4.4,15.78-4.4,6.13,0,11.45,1.23,15.97,3.7,4.52,2.46,8.23,6.41,11.14,11.85.32.5.44,1.09.38,1.75-.07.66-.32,1.22-.76,1.66-.44.44-1.04.66-1.8.66-.51,0-.97-.11-1.37-.34-.41-.22-.74-.55-1-.99-2.72-4.8-5.88-8.24-9.48-10.29-3.6-2.04-7.96-3.08-13.08-3.08-4.62,0-8.89,1.26-12.84,3.79-3.95,2.52-7.09,6.03-9.43,10.52-2.34,4.49-3.51,9.54-3.51,15.17s1.04,10.74,3.13,15.17c2.09,4.43,5.09,7.88,9.01,10.38,3.92,2.49,8.53,3.74,13.84,3.74,4.61,0,8.67-.95,12.18-2.84,3.51-1.9,6.21-4.48,8.1-7.73,1.9-3.25,2.84-6.77,2.84-10.57v-3.13h-19.05c-.7,0-1.28-.22-1.76-.66-.47-.45-.71-1.01-.71-1.71s.23-1.28.71-1.75c.48-.48,1.06-.72,1.76-.72h21.42c.82,0,1.47.23,1.95.66.47.45.71,1.11.71,1.99v28.35c0,.63-.24,1.19-.71,1.65-.47.48-1.06.72-1.76.72-.63,0-1.17-.24-1.61-.72-.45-.47-.66-1.02-.66-1.65v-11.19c-2.03,4.36-5.09,7.82-9.2,10.37-4.11,2.57-8.94,3.85-14.5,3.85-6.32,0-11.83-1.46-16.54-4.36Z"/>
    <path class="st0" d="M1656.22,877.11c-1.93-1.76-2.89-3.95-2.89-6.53s.95-4.85,2.84-6.59c1.9-1.74,4.2-2.61,6.92-2.61s5.04.87,6.97,2.61c1.92,1.74,2.89,3.94,2.89,6.59s-.97,4.77-2.89,6.53c-1.93,1.77-4.25,2.66-6.97,2.66s-4.95-.89-6.87-2.66Z"/>
    <path class="st0" d="M1748.65,897.38c-1.48,2.95-3.87,5.37-7.16,7.3-3.28,1.92-7.46,2.89-12.51,2.89-5.5,0-10.38-.99-14.64-2.95-4.27-1.96-7.76-4.33-10.47-7.11-.32-.25-.57-.57-.76-.95-.19-.38-.28-.76-.28-1.13,0-.76.27-1.39.8-1.9.54-.5,1.15-.76,1.85-.76.76,0,1.39.26,1.9.76,2.34,2.47,5.32,4.63,8.96,6.49,3.63,1.87,7.85,2.8,12.65,2.8,4.04,0,7.32-.76,9.81-2.28,2.49-1.51,4.25-3.35,5.26-5.49,1.01-2.15,1.52-4.27,1.52-6.36,0-3.66-1.15-6.46-3.46-8.38-2.31-1.94-5.83-3.49-10.57-4.7l-9.48-2.47c-4.86-1.26-8.86-3.15-11.99-5.69-3.12-2.52-4.69-6.35-4.69-11.47,0-2.9.74-5.65,2.23-8.24,1.48-2.6,3.82-4.71,7.01-6.36,3.19-1.64,7.09-2.46,11.71-2.46s8.48.8,12.18,2.41c3.7,1.61,6.9,3.8,9.62,6.59.32.25.55.55.71.9.16.35.23.74.23,1.19,0,.7-.23,1.29-.71,1.8-.48.5-1.09.75-1.85.75s-1.39-.19-1.89-.57c-2.34-2.47-5.07-4.46-8.2-5.97-3.12-1.52-6.49-2.28-10.09-2.28s-6.69.59-9.06,1.76c-2.37,1.16-4.07,2.66-5.12,4.5-1.04,1.83-1.57,3.73-1.57,5.69,0,3.66,1.14,6.41,3.41,8.25,2.27,1.83,5.4,3.25,9.38,4.26l10.33,2.65c5.63,1.39,9.89,3.45,12.8,6.16,2.91,2.72,4.36,6.51,4.36,11.37,0,3.03-.74,6.02-2.23,8.96Z"/>
    <path class="st0" d="M1772.72,906.44c-.41.32-.9.48-1.47.48-.63,0-1.15-.19-1.56-.58-.41-.38-.68-.84-.81-1.37-.12-.53-.09-1.05.1-1.57l24.93-61.34c.32-.75.78-1.36,1.37-1.79.6-.45,1.34-.66,2.23-.66.76,0,1.47.22,2.13.66.67.44,1.15,1.04,1.47,1.79l23.88,61.15c.25.57.3,1.13.15,1.7-.16.58-.48,1.04-.95,1.42-.47.38-1.06.58-1.75.58-.57,0-1.08-.17-1.52-.52-.45-.35-.76-.77-.95-1.28l-6.82-17.35h-32.33l-7.21,17.45c-.18.5-.49.91-.9,1.23ZM1811.35,882.93l-13.93-36.41-14.69,36.41h28.62Z"/>
  </g>
  <g id="_x31_">
    <path class="st2" d="M94.77,197.28c0-13.73,11.13-24.86,24.86-24.86h200.93c13.76,0,24.88,11.13,24.88,24.86v115.41c0,13.73-11.12,24.87-24.88,24.87,0,0-10.5,2.95-23.78-7.38-13.26-10.31-191.7-115.01-191.7-115.01,0,0-10.32-9.23-10.32-17.9Z"/>
    <path class="st1" d="M94.77,384.84c0-13.75,11.13-24.87,24.86-24.87h200.93c13.76,0,24.88,11.12,24.88,24.87v115.41c0,13.73-11.12,24.86-24.88,24.86,0,0-10.5,2.95-23.78-7.37-13.26-10.33-191.7-115.02-191.7-115.02,0,0-10.32-9.26-10.32-17.89Z"/>
    <path class="st3" d="M94.77,571.82c0-13.74,11.13-24.87,24.86-24.87h200.93c13.76,0,24.88,11.14,24.88,24.87v115.41c0,13.73-11.12,24.86-24.88,24.86,0,0-10.5,2.94-23.78-7.37-13.26-10.32-191.7-115-191.7-115,0,0-10.32-9.25-10.32-17.9Z"/>
  </g>
</svg>