<?xml version="1.0" encoding="utf-8"?>
<!-- Generator: Adobe Illustrator 24.2.1, SVG Export Plug-In . SVG Version: 6.00 Build 0)  -->
<svg version="1.1" id="_x33_0" xmlns="http://www.w3.org/2000/svg" xmlns:xlink="http://www.w3.org/1999/xlink" x="0px" y="0px"
	 viewBox="0 0 512 512" style="enable-background:new 0 0 512 512;" xml:space="preserve">
<style type="text/css">
	.st0{fill:#F6911F;}
	.st1{fill:#EA2227;}
</style>
<g>
	<path class="st0" d="M318.9,8h-65.1C197.7,8,152,53.7,152,109.8c0,29.1,12.5,56.8,34.2,76.1l45.8,40.7V216l7.5-1.9
		c1.7-0.4,3.3-1,4.9-1.6L268,180l-2.5-2.5c-6.1-6.1-9.5-14.3-9.5-22.9c0-10.3,8.3-18.6,18.6-18.6h5.4l8-40l48-18l1.2-0.6l1.9,8.5
		c12.8-7.2,20.9-20.7,20.9-35.7v-1.1C360,26.4,341.6,8,318.9,8L318.9,8z"/>
</g>
<g>
	<path class="st1" d="M16,432h112v32H16V432z"/>
</g>
<g>
	<path class="st1" d="M400,464h96v32h-96V464z"/>
</g>
<g>
	<path class="st1" d="M400,400h96v32h-96V400z"/>
</g>
<g>
	<path d="M464,56c-22.1,0-40,17.9-40,40v160c0,4.4-3.6,8-8,8h-96v-8c0-10.4-6.7-19.2-16-22.5V230c33.2-11.1,56-42.6,56-77.8
		c0-6-0.7-12-2-17.8l-15.3-68.8l-9.2,4.8L281,90.1l-7.6,38c-14.1,0.6-25.4,12.3-25.4,26.6c0,10.8,4.2,20.9,11.8,28.5l2.8,2.8
		c-4.9,10.2-14,17.7-25.1,20.5l-13.5,3.4v23.7c-9.3,3.3-16,12.1-16,22.5v8h-17.5c-26.8,0-51.7,13.3-66.6,35.6L111.7,318l-26-104.1
		C81.3,196.3,65.6,184,47.4,184C25.7,184,8,201.7,8,223.4c0,6.4,0.9,12.8,2.6,19l33.2,118.2C52.3,389,77.9,408,107.5,408
		c15,0,29.8-5.2,41.7-14.7l18.8-16V504h192V344h72c39.7,0,72-32.3,72-72V96C504,73.9,486.1,56,464,56L464,56z M464,72
		c13.2,0,24,10.8,24,24v24h-48V96C440,82.8,450.8,72,464,72z M241.4,221.9c18-4.5,32.3-17.7,38.2-35.4l1.6-4.7l-10-10
		c-4.6-4.6-7.1-10.7-7.1-17.2c0-5.8,4.8-10.6,10.6-10.6h12l8.4-42.1l36.4-13.7l11,49.5c1,4.7,1.6,9.5,1.6,14.3
		c0,29.3-19.7,55.5-47.9,63.5L288,218v14h-48v-9.8L241.4,221.9z M224,256c0-4.4,3.6-8,8-8h64c4.4,0,8,3.6,8,8v8h-80V256z M24,223.4
		c0-12.9,10.5-23.4,23.4-23.4c10.8,0,20.1,7.3,22.7,17.8l10,39.9L34.7,269L26,238.1C24.7,233.3,24,228.4,24,223.4z M432,328h-72v-16
		h-16v176H184V344h-16v12.3l-29,24.6c-8.9,7.1-20.1,11.1-31.5,11.1c-22.5,0-41.9-14.4-48.3-35.8L39,284.4l45-11.2l20.2,80.8
		l15.5-3.9l-2.8-11.1l20.3-30.4c11.9-17.8,31.8-28.5,53.3-28.5H416c13.2,0,24-10.8,24-24V136h48v136C488,302.9,462.9,328,432,328
		L432,328z"/>
	<path d="M392,360h112v16H392V360z"/>
	<path d="M360,216h16v16h-16V216z"/>
	<path d="M392,216h16v16h-16V216z"/>
	<path d="M360,184h48v16h-48V184z"/>
	<path d="M136,104h-16V56h-16v48H88V40H72v64H56V72H40v32H24v16h112V104z"/>
	<path d="M99.2,217.6l9.6,12.8C121,221.2,128,207.2,128,192c0-26.5-21.5-48-48-48c-15.2,0-29.2,7-38.4,19.2l12.8,9.6
		C60.5,164.7,69.8,160,80,160c17.6,0,32,14.4,32,32C112,202.2,107.3,211.5,99.2,217.6z"/>
	<path class="st1" d="M464,40V24c-39.7,0-72,32.3-72,72h16C408,65.1,433.1,40,464,40z"/>
</g>
</svg>
