<?xml version="1.0" encoding="utf-8"?>
<!-- Generator: Adobe Illustrator 24.2.1, SVG Export Plug-In . SVG Version: 6.00 Build 0)  -->
<svg version="1.1" id="Capa_1" xmlns="http://www.w3.org/2000/svg" xmlns:xlink="http://www.w3.org/1999/xlink" x="0px" y="0px"
	 viewBox="0 0 496 496" style="enable-background:new 0 0 496 496;" xml:space="preserve">
<style type="text/css">
	.st0{fill:#F6911F;}
	.st1{fill:#EA2227;}
	.st2{fill:#231F20;}
</style>
<path class="st0" d="M56,8h384v56H56V8z"/>
<path class="st1" d="M342.1,215.8c-13.7-1.4-24.6-12.4-27.3-26L312,176v7.8c0,15.5-10.8,29.6-26.1,31.9
	c-16.6,2.5-31.7-8.5-34.9-24.4L248,176l-2.8,14.2c-2.6,13.1-13,23.8-26.3,25.6c-18.8,2.4-34.9-12.2-34.9-30.5V176l-2.8,13.9
	c-2.7,13.5-13.6,24.6-27.3,26c-10.3,1-19.6-3.1-25.9-10.1V304c0,8.8,7.2,16,16,16h208c8.8,0,16-7.2,16-16v-98.2
	C361.7,212.7,352.4,216.9,342.1,215.8z"/>
<path class="st2" d="M64,400h16v16H64V400z"/>
<path class="st2" d="M32,400h16v16H32V400z"/>
<path class="st2" d="M96,400h16v16H96V400z"/>
<path class="st2" d="M456,112h-8V0H48v96h16V16h368v112h24c13.2,0,24,10.8,24,24v232H161.9l-32-16H16V152c0-13.2,10.8-24,24-24h8
	v224h400V144h-16v192H64V112H40c-22.1,0-40,17.9-40,40v256c0,22.1,17.9,40,40,40h104v32h-32v16h272v-16h-32v-32h104
	c22.1,0,40-17.9,40-40V152C496,129.9,478.1,112,456,112z M336,480H160v-32h176V480z M456,432H40c-13.2,0-24-10.8-24-24v-24h110.1
	l32,16H480v8C480,421.2,469.2,432,456,432z"/>
<path class="st2" d="M80,32h16v16H80V32z"/>
<path class="st2" d="M112,32h16v16h-16V32z"/>
<path class="st2" d="M144,32h16v16h-16V32z"/>
<path class="st2" d="M112,185.2c0,21.4,17.4,38.8,38.8,38.8c13.1,0,24.9-6.7,31.9-17c7,10.3,18.7,17,32.1,17
	c13.9,0,26.4-7.5,33.2-18.8c6.9,11.4,19.3,18.8,33.2,18.8c13.3,0,25.1-6.8,32.1-17c7.1,10.3,18.8,17,31.9,17
	c21.4,0,38.8-17.4,38.8-38.8V181c0-4.2-0.7-8.3-2-12.3L357.8,96H138.2L114,168.7c-1.3,4-2,8.1-2,12.3V185.2z M346.2,112l20.6,61.8
	c0.8,2.3,1.2,4.7,1.2,7.2v4.2c0,12.6-10.2,22.8-22.8,22.8c-10.8,0-20.2-7.7-22.3-18.3l-2.9-13.3V176h-0.1L306,112H346.2z M304,176.9
	v8.4c0,12.6-10.2,22.8-22.8,22.8c-10.8,0-20.2-7.7-22.3-18.3l-2.9-14.5V112h33.6L304,176.9z M240,112v63.2l-2.9,14.5
	c-2.1,10.6-11.5,18.3-22.3,18.3c-12.6,0-22.8-10.2-22.8-22.8v-7.1l14.4-66.1H240z M128,181c0-2.5,0.4-4.9,1.2-7.2l20.6-61.8H190
	l-13.9,62.4l-3.1,15.3c-2.1,10.6-11.5,18.3-22.3,18.3c-12.6,0-22.8-10.2-22.8-22.8V181z"/>
<path class="st2" d="M280,320v-80h-64v80h16v-64h32v64H280z"/>
</svg>
