<?xml version="1.0" encoding="utf-8"?>
<!-- Generator: Adobe Illustrator 24.2.1, SVG Export Plug-In . SVG Version: 6.00 Build 0)  -->
<svg version="1.1" id="Capa_1" xmlns="http://www.w3.org/2000/svg" xmlns:xlink="http://www.w3.org/1999/xlink" x="0px" y="0px"
	 viewBox="0 0 496 496" style="enable-background:new 0 0 496 496;" xml:space="preserve">
<style type="text/css">
	.st0{fill:#231F20;}
	.st1{fill:#EA2227;}
	.st2{fill:#F69220;}
</style>
<g>
	<path class="st0" d="M104,170.9v154.2l144,67.8l144-67.8V170.9l-144-67.8L104,170.9z M365.2,176L248,231.2L130.8,176L248,120.8
		L365.2,176z M120,188.6l120,56.5v126.3l-120-56.5V188.6z M256,371.4V245.1l120-56.5v126.3L256,371.4z"/>
	<polygon class="st0" points="344,290.9 268.6,326.4 275.4,340.9 360,301.1 360,216 344,216 	"/>
	<path class="st0" d="M371.8,33.1c-4.8-2.8-9.8-5.4-14.8-7.9l-7,14.4c4.7,2.3,9.3,4.8,13.8,7.4L371.8,33.1z"/>
	<path class="st0" d="M80,128c26.5,0,48-21.5,48-48c0-9.5-2.8-18.3-7.5-25.7C158.4,29.3,202.3,16,248,16c30.5,0,60.2,5.8,88.2,17.3
		l6.1-14.8C312.3,6.2,280.6,0,248,0c-49.7,0-97.4,14.7-138.4,42.3C101.4,35.9,91.2,32,80,32c-26.5,0-48,21.5-48,48S53.5,128,80,128z
		 M80,48c17.6,0,32,14.4,32,32s-14.4,32-32,32S48,97.6,48,80S62.4,48,80,48z"/>
	<rect x="72" y="72" class="st0" width="16" height="16"/>
	<path class="st0" d="M46.9,132.2l-13.9-8c-2.8,4.8-5.4,9.8-7.9,14.8l14.4,7C41.8,141.4,44.3,136.7,46.9,132.2z"/>
	<path class="st0" d="M80,368c-9.5,0-18.2,2.8-25.7,7.5C29.3,337.6,16,293.7,16,248c0-30.5,5.8-60.2,17.3-88.2l-14.8-6.1
		C6.2,183.6,0,215.4,0,248c0,49.7,14.7,97.4,42.3,138.4C35.9,394.6,32,404.8,32,416c0,26.5,21.5,48,48,48s48-21.5,48-48
		S106.5,368,80,368z M80,448c-17.6,0-32-14.4-32-32s14.4-32,32-32s32,14.4,32,32S97.6,448,80,448z"/>
	<rect x="72" y="408" class="st0" width="16" height="16"/>
	<path class="st0" d="M124.2,462.9c4.8,2.8,9.8,5.4,14.8,7.9l7-14.4c-4.7-2.3-9.3-4.8-13.8-7.4L124.2,462.9z"/>
	<path class="st0" d="M416,368c-26.5,0-48,21.5-48,48c0,9.5,2.8,18.3,7.5,25.7c-37.9,25-81.8,38.3-127.5,38.3
		c-30.5,0-60.2-5.8-88.2-17.3l-6.1,14.8c29.9,12.3,61.7,18.5,94.3,18.5c49.7,0,97.4-14.7,138.4-42.3c8.2,6.4,18.4,10.3,29.6,10.3
		c26.5,0,48-21.5,48-48S442.5,368,416,368z M416,448c-17.6,0-32-14.4-32-32s14.4-32,32-32s32,14.4,32,32S433.6,448,416,448z"/>
	<rect x="408" y="408" class="st0" width="16" height="16"/>
	<path class="st0" d="M453.7,109.6c6.4-8.2,10.3-18.4,10.3-29.6c0-26.5-21.5-48-48-48s-48,21.5-48,48s21.5,48,48,48
		c9.5,0,18.2-2.8,25.7-7.5c25,37.9,38.3,81.8,38.3,127.5c0,30.5-5.8,60.2-17.3,88.2l14.8,6.1c12.3-29.9,18.5-61.6,18.5-94.3
		C496,198.3,481.3,150.6,453.7,109.6z M416,112c-17.6,0-32-14.4-32-32s14.4-32,32-32s32,14.4,32,32S433.6,112,416,112z"/>
	<path class="st0" d="M449.1,363.8l13.9,8c2.8-4.8,5.4-9.8,7.9-14.8l-14.4-7C454.2,354.6,451.7,359.3,449.1,363.8z"/>
	<rect x="408" y="72" class="st0" width="16" height="16"/>
</g>
<g>
	<polygon class="st1" points="136,216 224,256 224,344 136,304 	"/>
	<polygon class="st2" points="160,176 248,136 336,176 248,216 	"/>
</g>
</svg>
