<?xml version="1.0" encoding="utf-8"?>
<!-- Generator: Adobe Illustrator 24.2.1, SVG Export Plug-In . SVG Version: 6.00 Build 0)  -->
<svg version="1.1" id="Layer_5" xmlns="http://www.w3.org/2000/svg" xmlns:xlink="http://www.w3.org/1999/xlink" x="0px" y="0px"
	 viewBox="0 0 512 512" style="enable-background:new 0 0 512 512;" xml:space="preserve">
<style type="text/css">
	.st0{fill:#F69220;}
	.st1{fill:#EA2227;}
	.st2{fill:#231F20;}
</style>
<g>
	<path class="st0" d="M413.3,143.5H408v-32h72V160c0,36.5-22.9,69.6-57.1,82.4L408,248v-40.5l21.3-16c6.7-5,10.7-12.9,10.7-21.3
		C440,155.4,428.1,143.5,413.3,143.5z"/>
</g>
<g>
	<g>
		<path class="st1" d="M248,240H136v-64h112V240z"/>
	</g>
</g>
<g>
	<g>
		<path class="st0" d="M120,240H8v-64h112V240z"/>
	</g>
</g>
<g>
	<g>
		<path class="st1" d="M120,128H8V48h112V128z"/>
	</g>
</g>
<g>
	<path class="st2" d="M416,266v-54l18.1-13.6c8.7-6.5,13.9-16.9,13.9-27.7c0-18.2-14.1-33.2-32-34.6V120h64c8.8,0,16-7.2,16-16V88
		c0-8.8-7.2-16-16-16h-0.5C475.5,36.1,445,8,408,8h-64c-37,0-67.5,28.1-71.5,64H272c-8.8,0-16,7.2-16,16v16c0,8.8,7.2,16,16,16h16
		v13.6l-11.9,17.8c-2.7,4-4.1,8.7-4.1,13.6c0,9.8,5.5,18.7,14.3,23.1l1.7,0.9V208c0,22.1,17.9,40,40,40h24v17l-9.4,1.3
		c-45.4,6.1-83.6,35.7-100.9,77.8H200V240h-16v104h-32v-64h-40c-22.1,0-40,17.9-40,40v144c0,22.1,17.9,40,40,40h232v-32h75.2
		c46.8,0,84.8-38,84.8-84.8C504,332,468.1,283,416,266z M344,24h64c28.2,0,51.5,20.9,55.4,48H288.6C292.5,44.9,315.8,24,344,24z
		 M272,88h208v16H272V88z M328,232c-13.2,0-24-10.8-24-24v-28.9l-10.6-5.3c-3.4-1.7-5.4-5-5.4-8.8c0-1.7,0.5-3.3,1.4-4.7l14.6-21.9
		V120h96v32h13.3c10.3,0,18.7,8.4,18.7,18.7c0,5.8-2.8,11.4-7.5,14.9L400,204v68c0,8.8-7.2,16-16,16s-16-7.2-16-16v-40H328z
		 M112,296h24v48h-24c-13.2,0-24-10.8-24-24S98.8,296,112,296z M328,488H112c-13.2,0-24-10.8-24-24V351.8c6.7,5.1,15,8.2,24,8.2h216
		v32c-17.6,0-32,14.4-32,32v16c0,17.6,14.4,32,32,32V488z M360,456h-32c-8.8,0-16-7.2-16-16v-16c0-8.8,7.2-16,16-16h14.1
		c4.3,0,8.3,1.7,11.3,4.7l6.6,6.6V456z M419.2,456H376v-32h31c13.1,0,25.4-5.1,34.6-14.3c9.2-9.2,14.3-21.5,14.3-34.6v-23h-16v23
		c0,8.8-3.4,17.1-9.7,23.3c-6.1,6.1-14.6,9.7-23.3,9.7h-35.7l-6.6-6.6c-5.6-5.6-12.9-8.7-20.7-9.2V344h-84.8
		c16.2-33.5,48-56.9,85.5-61.9l8.7-1.2c3.9,13.3,16,23,30.6,23c14,0,25.8-9.1,30.1-21.7C458,298.1,488,340,488,387.2
		C488,425.1,457.1,456,419.2,456L419.2,456z"/>
	<path class="st2" d="M56,128h16v48H56V128z"/>
	<path class="st2" d="M120,200h16v16h-16V200z"/>
</g>
</svg>
