<?xml version="1.0" encoding="utf-8"?>
<!-- Generator: Adobe Illustrator 24.2.1, SVG Export Plug-In . SVG Version: 6.00 Build 0)  -->
<svg version="1.1" id="Layer_1_1_" xmlns="http://www.w3.org/2000/svg" xmlns:xlink="http://www.w3.org/1999/xlink" x="0px" y="0px"
	 viewBox="0 0 512 512" style="enable-background:new 0 0 512 512;" xml:space="preserve">
<style type="text/css">
	.st0{fill:#F69220;}
	.st1{fill:#EA2227;}
	.st2{fill:#231F20;}
</style>
<g>
	<g>
		<path class="st0" d="M424,280h-80c-8.8,0-16-7.2-16-16v-80c0-8.8,7.2-16,16-16h80c8.8,0,16,7.2,16,16v80
			C440,272.8,432.8,280,424,280z"/>
	</g>
	<g>
		<path class="st0" d="M312,280h-80V176h80V280z"/>
	</g>
	<g>
		<path class="st1" d="M424,440h-80c-8.8,0-16-7.2-16-16V312c0-8.8,7.2-16,16-16h80c8.8,0,16,7.2,16,16v112
			C440,432.8,432.8,440,424,440z"/>
	</g>
</g>
<g>
	<path class="st2" d="M480,104h-56V80c0-22.1-17.9-40-40-40h-40c0-17.6-14.4-32-32-32H40C22.4,8,8,22.4,8,40s14.4,32,32,32h64
		c8.8,0,16,7.2,16,16s-7.2,16-16,16H40c-17.6,0-32,14.4-32,32v192c0,17.6,14.4,32,32,32h0.8c3.7,18.2,19.9,32,39.2,32h88v88
		c0,13.2,10.8,24,24,24h288c13.2,0,24-10.8,24-24V128C504,114.8,493.2,104,480,104z M384,56c13.2,0,24,10.8,24,24v24H264V80
		c0-13.2,10.8-24,24-24H384z M248,328v16H104v-16H248z M264,334.9l25.6,17.1L264,369.1V334.9z M104,360h144v16H104V360z M216,392
		h42.4l60-40l-60-40H216V152h240v304H216V392z M312,136v-16h48v16H312z M40.8,344H40c-8.8,0-16-7.2-16-16V136c0-8.8,7.2-16,16-16h64
		c17.6,0,32-14.4,32-32s-14.4-32-32-32H40c-8.8,0-16-7.2-16-16s7.2-16,16-16h272c8.8,0,16,7.2,16,16h-40c-22.1,0-40,17.9-40,40v24
		h-56c-13.2,0-24,10.8-24,24v168h16V128c0-4.4,3.6-8,8-8h104v16h-96v176H80C60.7,312,44.5,325.8,40.8,344z M56,352
		c0-13.2,10.8-24,24-24h8v48h-8C66.8,376,56,365.2,56,352z M488,480c0,4.4-3.6,8-8,8H192c-4.4,0-8-3.6-8-8v-88h16v80h272V136h-96
		v-16h104c4.4,0,8,3.6,8,8V480z"/>
	<rect x="232" y="168" class="st2" width="80" height="16"/>
	<rect x="232" y="200" class="st2" width="80" height="16"/>
	<rect x="232" y="232" class="st2" width="80" height="16"/>
	<rect x="296" y="264" class="st2" width="16" height="16"/>
	<rect x="232" y="264" class="st2" width="48" height="16"/>
	<rect x="328" y="72" class="st2" width="16" height="16"/>
	<rect x="360" y="72" class="st2" width="16" height="16"/>
	<rect x="296" y="72" class="st2" width="16" height="16"/>
</g>
</svg>
