<?xml version="1.0" encoding="utf-8"?>
<!-- Generator: Adobe Illustrator 24.2.1, SVG Export Plug-In . SVG Version: 6.00 Build 0)  -->
<svg version="1.1" id="Layer_5" xmlns="http://www.w3.org/2000/svg" xmlns:xlink="http://www.w3.org/1999/xlink" x="0px" y="0px"
	 viewBox="0 0 512 512" style="enable-background:new 0 0 512 512;" xml:space="preserve">
<style type="text/css">
	.st0{fill:#EA2227;}
	.st1{fill:#F69220;}
	.st2{fill:#231F20;}
	.st3{fill:#808184;}
</style>
<g>
	<path class="st0" d="M56,280h112v176H56V280z"/>
	<path class="st1" d="M168,248H56v-96h112V248z"/>
	<path class="st1" d="M344,184h112v176H344V184z"/>
	<path class="st0" d="M456,152H344V56h112V152z"/>
</g>
<path class="st2" d="M56,280h32v16H56V280z"/>
<path class="st2" d="M104,280h64v16h-64V280z"/>
<path class="st2" d="M56,440h32v16H56V440z"/>
<path class="st2" d="M104,440h64v16h-64V440z"/>
<path class="st2" d="M56,312h112v16H56V312z"/>
<path class="st2" d="M56,344h112v16H56V344z"/>
<path class="st2" d="M56,376h112v16H56V376z"/>
<path class="st2" d="M56,408h112v16H56V408z"/>
<path class="st2" d="M344,184h32v16h-32V184z"/>
<path class="st2" d="M392,184h64v16h-64V184z"/>
<path class="st2" d="M344,344h32v16h-32V344z"/>
<path class="st2" d="M392,344h64v16h-64V344z"/>
<path class="st2" d="M344,216h112v16H344V216z"/>
<path class="st2" d="M344,248h112v16H344V248z"/>
<path class="st2" d="M344,280h112v16H344V280z"/>
<path class="st2" d="M344,312h112v16H344V312z"/>
<path class="st2" d="M300.7,8l-96,96H8v400h203.3l96-96H504V8H300.7z M296,332.7l-80,80v-41.4l80-80V332.7z M296,268.7l-80,80v-41.4
	l80-80V268.7z M296,204.7l-80,80v-41.4l80-80V204.7z M296,140.7l-80,80v-41.4l80-80V140.7z M296,76.7l-80,80v-41.4l80-80V76.7z
	 M216,435.3l80-80v41.4l-80,80V435.3z M24,120h176v368H24V120z M488,392H312V24h176V392z"/>
<g>
	<g>
		<g>
			<path class="st2" d="M-412.6,35.3c-1.1,0-2.1-0.4-2.9-1.2c-1-1-1.1-2.1-1.1-4.6c0-2.6,0-3.6,1.1-4.6c0.8-0.8,1.8-1.2,2.9-1.2
				c2.1,0,3.5,1.3,3.9,3.3h-0.9c-0.3-1.6-1.5-2.6-3-2.6c-0.8,0-1.6,0.3-2.2,0.9c-0.8,0.8-0.9,1.7-0.9,4.2c0,2.4,0.1,3.3,0.9,4.2
				c0.6,0.6,1.3,0.9,2.2,0.9c1.5,0,2.7-1,3-2.6h0.8C-409.1,34-410.5,35.3-412.6,35.3z"/>
			<path class="st2" d="M-396.2,34.1c-0.8,0.8-1.8,1.2-2.9,1.2c-1.1,0-2.1-0.4-2.9-1.2c-1-1-1.1-2.1-1.1-4.6c0-2.6,0-3.6,1.1-4.6
				c0.8-0.8,1.8-1.2,2.9-1.2c1.1,0,2.1,0.4,2.9,1.2c1,1,1.1,2.1,1.1,4.6C-395.1,32.1-395.1,33.1-396.2,34.1z M-396.9,25.4
				c-0.6-0.6-1.3-0.9-2.2-0.9c-0.8,0-1.6,0.3-2.2,0.9c-0.8,0.8-0.9,1.7-0.9,4.2c0,2.4,0.1,3.3,0.9,4.2c0.6,0.6,1.3,0.9,2.2,0.9
				c0.8,0,1.6-0.3,2.2-0.9c0.8-0.8,0.9-1.7,0.9-4.2C-396,27.1-396,26.2-396.9,25.4z"/>
			<path class="st2" d="M-388,25.3v9.9h-0.9V23.8h0.9l6.6,9.9v-9.9h0.9v11.4h-0.9L-388,25.3z"/>
			<path class="st2" d="M-370.8,35.2h-0.9V24.6h-3.4v-0.8h7.7v0.8h-3.4V35.2z"/>
			<path class="st2" d="M-361.9,23.8h6.9v0.8h-6.1v4.5h5.2v0.8h-5.2v4.6h6.1v0.8h-6.9V23.8z"/>
			<path class="st2" d="M-348.2,25.3v9.9h-0.9V23.8h0.9l6.6,9.9v-9.9h0.9v11.4h-0.9L-348.2,25.3z"/>
			<path class="st2" d="M-334,23.8h0.9v11.4h-0.9V23.8z"/>
			<path class="st2" d="M-319.7,34.2c-0.7,0.7-1.7,1-2.9,1h-3.8V23.8h3.8c1.2,0,2.2,0.4,2.9,1c1.2,1.2,1.1,3,1.1,4.5
				C-318.6,30.9-318.6,33-319.7,34.2z M-320.3,25.4c-0.7-0.7-1.5-0.9-2.5-0.9h-2.8v9.9h2.8c0.9,0,1.8-0.2,2.5-0.9
				c0.9-0.9,0.8-2.9,0.8-4.2C-319.5,28.1-319.4,26.4-320.3,25.4z"/>
			<path class="st2" d="M-306,34.1c-0.8,0.8-1.8,1.2-2.9,1.2c-1.1,0-2.1-0.4-2.9-1.2c-1-1-1.1-2.1-1.1-4.6c0-2.6,0-3.6,1.1-4.6
				c0.8-0.8,1.8-1.2,2.9-1.2c1.1,0,2.1,0.4,2.9,1.2c1,1,1.1,2.1,1.1,4.6C-305,32.1-305,33.1-306,34.1z M-306.7,25.4
				c-0.6-0.6-1.3-0.9-2.2-0.9c-0.8,0-1.6,0.3-2.2,0.9c-0.8,0.8-0.9,1.7-0.9,4.2c0,2.4,0.1,3.3,0.9,4.2c0.6,0.6,1.3,0.9,2.2,0.9
				c0.8,0,1.6-0.3,2.2-0.9c0.8-0.8,0.9-1.7,0.9-4.2C-305.8,27.1-305.9,26.2-306.7,25.4z"/>
			<path class="st2" d="M-295.8,35.3c-1.7,0-2.8-0.5-3.8-1.5l0.6-0.6c1,1,1.9,1.3,3.2,1.3c1.8,0,2.9-0.9,2.9-2.4
				c0-0.7-0.2-1.2-0.6-1.6c-0.4-0.3-0.7-0.5-1.7-0.6l-1.3-0.2c-0.9-0.1-1.5-0.4-2-0.8c-0.6-0.5-0.9-1.2-0.9-2.1
				c0-1.9,1.3-3.1,3.5-3.1c1.4,0,2.3,0.4,3.3,1.2l-0.6,0.6c-0.7-0.6-1.4-1.1-2.8-1.1c-1.7,0-2.6,0.9-2.6,2.4c0,0.7,0.2,1.2,0.6,1.5
				c0.4,0.3,1.1,0.6,1.7,0.7l1.2,0.2c1.1,0.1,1.6,0.4,2,0.8c0.6,0.5,1,1.3,1,2.2C-292,34.1-293.4,35.3-295.8,35.3z"/>
			<path class="st2" d="M-283.4,32.5c-1.4,0-2.6-1.2-2.6-2.6c0-1.4,1.2-2.6,2.6-2.6c1.4,0,2.6,1.2,2.6,2.6
				C-280.8,31.3-282,32.5-283.4,32.5z"/>
			<path class="st2" d="M-268.3,32.4h-5.3l-1,2.8h-0.9l4.2-11.4h0.8l4.2,11.4h-0.9L-268.3,32.4z M-273.4,31.7h4.8l-2.4-6.7
				L-273.4,31.7z"/>
			<path class="st2" d="M-254.5,34.2c-0.7,0.7-1.7,1-2.9,1h-3.8V23.8h3.8c1.2,0,2.2,0.4,2.9,1c1.2,1.2,1.1,3,1.1,4.5
				C-253.4,30.9-253.4,33-254.5,34.2z M-255.1,25.4c-0.7-0.7-1.5-0.9-2.5-0.9h-2.8v9.9h2.8c0.9,0,1.8-0.2,2.5-0.9
				c0.9-0.9,0.8-2.9,0.8-4.2C-254.3,28.1-254.2,26.4-255.1,25.4z"/>
			<path class="st2" d="M-245.1,35.2l-3.8-11.4h0.9l3.2,9.9l3.2-9.9h0.9l-3.8,11.4H-245.1z"/>
			<path class="st2" d="M-235.5,23.8h6.9v0.8h-6.1v4.5h5.2v0.8h-5.2v4.6h6.1v0.8h-6.9V23.8z"/>
			<path class="st2" d="M-218.7,30h-3.1v5.3h-0.9V23.8h4.3c1.9,0,3.3,1.1,3.3,3.1c0,1.7-1,2.8-2.6,3.1l2.8,5.3h-1L-218.7,30z
				 M-218.5,24.6h-3.4v4.6h3.4c1.5,0,2.5-0.7,2.5-2.3S-217,24.6-218.5,24.6z"/>
			<path class="st2" d="M-206,35.2h-0.9V24.6h-3.4v-0.8h7.7v0.8h-3.4V35.2z"/>
			<path class="st2" d="M-197.1,23.8h0.9v11.4h-0.9V23.8z"/>
			<path class="st2" d="M-186.6,35.3c-1.7,0-2.8-0.5-3.8-1.5l0.6-0.6c1,1,1.9,1.3,3.2,1.3c1.8,0,2.9-0.9,2.9-2.4
				c0-0.7-0.2-1.2-0.6-1.6c-0.4-0.3-0.7-0.5-1.7-0.6l-1.3-0.2c-0.9-0.1-1.5-0.4-2-0.8c-0.6-0.5-0.9-1.2-0.9-2.1
				c0-1.9,1.3-3.1,3.5-3.1c1.4,0,2.3,0.4,3.3,1.2l-0.6,0.6c-0.7-0.6-1.4-1.1-2.8-1.1c-1.7,0-2.6,0.9-2.6,2.4c0,0.7,0.2,1.2,0.6,1.5
				c0.4,0.3,1.1,0.6,1.7,0.7l1.2,0.2c1.1,0.1,1.6,0.4,2,0.8c0.6,0.5,1,1.3,1,2.2C-182.8,34.1-184.2,35.3-186.6,35.3z"/>
			<path class="st2" d="M-176.9,23.8h0.9v11.4h-0.9V23.8z"/>
			<path class="st2" d="M-168.4,25.3v9.9h-0.9V23.8h0.9l6.6,9.9v-9.9h0.9v11.4h-0.9L-168.4,25.3z"/>
			<path class="st2" d="M-147.7,34c-0.8,0.8-1.8,1.3-3,1.3c-1.1,0-2.1-0.4-2.9-1.2c-1-1-1.1-2.1-1.1-4.6c0-2.6,0-3.6,1.1-4.6
				c0.8-0.8,1.8-1.2,2.9-1.2c2,0,3.6,1.3,3.9,3.3h-0.9c-0.3-1.6-1.5-2.6-3-2.6c-0.8,0-1.6,0.3-2.2,0.9c-0.8,0.8-0.9,1.7-0.9,4.2
				c0,2.4,0.1,3.3,0.9,4.2c0.6,0.6,1.3,0.9,2.2,0.9c0.9,0,1.8-0.4,2.4-1.1c0.5-0.6,0.7-1.3,0.7-2.3v-1h-3.1v-0.8h3.9v1.9
				C-146.8,32.4-147,33.3-147.7,34z"/>
			<path class="st2" d="M-137.9,32.5c-1.4,0-2.6-1.2-2.6-2.6c0-1.4,1.2-2.6,2.6-2.6c1.4,0,2.6,1.2,2.6,2.6
				C-135.3,31.3-136.5,32.5-137.9,32.5z"/>
			<path class="st2" d="M-125.7,35.3c-1.7,0-2.8-0.5-3.8-1.5l0.6-0.6c1,1,1.9,1.3,3.2,1.3c1.8,0,2.9-0.9,2.9-2.4
				c0-0.7-0.2-1.2-0.6-1.6c-0.4-0.3-0.7-0.5-1.7-0.6l-1.3-0.2c-0.9-0.1-1.5-0.4-2-0.8c-0.6-0.5-0.9-1.2-0.9-2.1
				c0-1.9,1.3-3.1,3.5-3.1c1.4,0,2.3,0.4,3.3,1.2l-0.6,0.6c-0.7-0.6-1.4-1.1-2.8-1.1c-1.7,0-2.7,0.9-2.7,2.4c0,0.7,0.2,1.2,0.6,1.5
				c0.4,0.3,1.1,0.6,1.7,0.7l1.2,0.2c1.1,0.1,1.6,0.4,2,0.8c0.6,0.5,1,1.3,1,2.2C-121.9,34.1-123.3,35.3-125.7,35.3z"/>
			<path class="st2" d="M-110.2,32.4h-5.3l-1,2.8h-0.9l4.2-11.4h0.8l4.2,11.4h-0.9L-110.2,32.4z M-115.3,31.7h4.8l-2.4-6.7
				L-115.3,31.7z"/>
		</g>
	</g>
	<g>
		<g>
			<path class="st2" d="M-322.2-4.4c-9.1,0-17.4-3.4-23.6-9.6c-8.7-8.7-8.7-17.7-8.7-37.3c0-19.6,0-28.6,8.7-37.3
				c6.2-6.2,14.5-9.6,23.6-9.6c16.6,0,28.9,10.1,32,27.5h-10.1c-2.5-11.3-10.4-18.7-21.9-18.7c-6.1,0-11.9,2.3-15.9,6.5
				c-5.8,6-6.5,12.3-6.5,31.6s0.6,25.7,6.5,31.6c4,4.1,9.8,6.5,15.9,6.5c11.5,0,19.7-7.4,22.2-18.7h9.8
				C-293.2-14.5-305.7-4.4-322.2-4.4z"/>
			<path class="st2" d="M-203-5.2l-7.4-20.9h-40.3l-7.4,20.9h-10.5l33.9-92.2h8.3l33.8,92.2H-203z M-230.3-83.3l-17.4,48.7h34.5
				L-230.3-83.3z"/>
			<path class="st2" d="M-140.9-4.4c-13.9,0-22.9-3.5-31.6-12.2l6.7-6.7c7.6,7.6,14.8,10.1,25.1,10.1c13.5,0,21.8-6.3,21.8-17.1
				c0-4.8-1.4-8.9-4.4-11.5c-3-2.6-5.3-3.4-12-4.4l-10.8-1.7c-7.3-1.2-13-3.5-17-7c-4.7-4.1-7-9.8-7-17.2c0-15.7,11.3-26,29.5-26
				c11.8,0,19.6,3,27.5,10.1l-6.3,6.3c-5.7-5.2-11.8-7.9-21.5-7.9c-12.3,0-19.4,6.9-19.4,17.1c0,4.5,1.3,8.2,4.1,10.6
				c2.9,2.5,7.6,4.3,12.4,5.1l10.1,1.6c8.7,1.3,13,3.1,16.8,6.5c5.1,4.3,7.8,10.6,7.8,18.3C-109.1-14.4-121.8-4.4-140.9-4.4z"/>
		</g>
	</g>
	<path class="st3" d="M-415.9-97.3c0-2.6,2.1-4.7,4.7-4.7h37.6c2.6,0,4.7,2.1,4.7,4.7v21.6c0,2.6-2.1,4.7-4.7,4.7c0,0-2,0.6-4.5-1.4
		c-2.5-1.9-35.9-21.5-35.9-21.5S-415.9-95.7-415.9-97.3z"/>
	<path class="st1" d="M-415.9-62.2c0-2.6,2.1-4.7,4.7-4.7h37.6c2.6,0,4.7,2.1,4.7,4.7v21.6c0,2.6-2.1,4.7-4.7,4.7c0,0-2,0.6-4.5-1.4
		c-2.5-1.9-35.9-21.5-35.9-21.5S-415.9-60.6-415.9-62.2z"/>
	<path class="st0" d="M-415.9-27.2c0-2.6,2.1-4.7,4.7-4.7h37.6c2.6,0,4.7,2.1,4.7,4.7v21.6c0,2.6-2.1,4.7-4.7,4.7c0,0-2,0.6-4.5-1.4
		c-2.5-1.9-35.9-21.5-35.9-21.5S-415.9-25.6-415.9-27.2z"/>
</g>
</svg>
