<?xml version="1.0" encoding="utf-8"?>
<!-- Generator: Adobe Illustrator 24.2.1, SVG Export Plug-In . SVG Version: 6.00 Build 0)  -->
<svg version="1.1" id="Capa_1" xmlns="http://www.w3.org/2000/svg" xmlns:xlink="http://www.w3.org/1999/xlink" x="0px" y="0px"
	 viewBox="0 0 496 496" style="enable-background:new 0 0 496 496;" xml:space="preserve">
<style type="text/css">
	.st0{fill:#F69220;}
	.st1{fill:#EA2227;}
	.st2{fill:#231F20;}
	.st3{fill:#808184;}
</style>
<g>
	<path class="st0" d="M168,464H88c-4.4,0-8-3.6-8-8v-80c0-4.4,3.6-8,8-8h80c4.4,0,8,3.6,8,8v80C176,460.4,172.4,464,168,464z"/>
	<path class="st1" d="M168,352H88c-4.4,0-8-3.6-8-8v-80c0-4.4,3.6-8,8-8h80c4.4,0,8,3.6,8,8v80C176,348.4,172.4,352,168,352z"/>
	<path class="st0" d="M168,240H88c-4.4,0-8-3.6-8-8v-80c0-4.4,3.6-8,8-8h80c4.4,0,8,3.6,8,8v80C176,236.4,172.4,240,168,240z"/>
</g>
<path class="st2" d="M456,376h-9.5c0.9-2.5,1.5-5.2,1.5-8c0-13.2-10.8-24-24-24h-56V104c0-22.1-17.9-40-40-40h-53.8l-4-16H224v-8
	c0-22.1-17.9-40-40-40s-40,17.9-40,40v8H97.8l-4,16H40C17.9,64,0,81.9,0,104v352c0,22.1,17.9,40,40,40h288c22.1,0,40-17.9,40-40h88
	c22.1,0,40-17.9,40-40S478.1,376,456,376z M432,368c0,4.4-3.6,8-8,8H280c-4.4,0-8-3.6-8-8s3.6-8,8-8h144
	C428.4,360,432,363.6,432,368z M184,440c-13.2,0-24-10.8-24-24s10.8-24,24-24h96h120v48H184z M144.6,421.9l-14.9-3.7
	c-1-0.3-1.7-1.2-1.7-2.2s0.7-1.9,1.7-2.2l14.9-3.7c-0.3,1.9-0.6,3.9-0.6,5.9S144.3,420,144.6,421.9z M160,40c0-13.2,10.8-24,24-24
	s24,10.8,24,24v8h-48V40z M110.2,64h147.5l12,48H98.2L110.2,64z M290.2,128l-4-16H320v200h16V96h-53.8l-4-16H328
	c13.2,0,24,10.8,24,24v240h-16v-16h-16v16h-40c-13.2,0-24,10.8-24,24c0,2.8,0.6,5.5,1.5,8H184c-13,0-24.5,6.3-31.8,16H152l-26.2,6.3
	c-8.1,2-13.8,9.3-13.8,17.7s5.7,15.7,13.8,17.7l24.2,6.1l2,0c7.3,9.8,18.8,16.2,32,16.2h136v24H48V112h33.8l-4,16H290.2z M16,456
	V104c0-13.2,10.8-24,24-24h49.8l-4,16H32v382.5C22.7,475.2,16,466.4,16,456z M336,478.5V456h16C352,466.4,345.3,475.2,336,478.5z
	 M456,440h-40v-48h8h32c13.2,0,24,10.8,24,24S469.2,440,456,440z"/>
<polygon class="st2" points="196.8,278.4 187.2,265.6 128.8,309.4 117.7,298.3 106.3,309.7 127.2,330.6 "/>
<polygon class="st2" points="196.8,166.4 187.2,153.6 128.8,197.4 117.7,186.3 106.3,197.7 127.2,218.6 "/>
<rect x="224" y="152" class="st2" width="64" height="16"/>
<rect x="224" y="184" class="st2" width="64" height="16"/>
<rect x="224" y="216" class="st2" width="64" height="16"/>
<rect x="224" y="264" class="st2" width="64" height="16"/>
<rect x="224" y="296" class="st2" width="64" height="16"/>
<rect x="224" y="328" class="st2" width="16" height="16"/>
<rect x="128" y="80" class="st2" width="16" height="16"/>
<rect x="224" y="80" class="st2" width="16" height="16"/>
<g>
	<g>
		<g>
			<path class="st2" d="M-366.3,84.7c-1.1,0-2.1-0.4-2.9-1.2c-1-1-1.1-2.1-1.1-4.6c0-2.6,0-3.6,1.1-4.6c0.8-0.8,1.8-1.2,2.9-1.2
				c2.1,0,3.5,1.3,3.9,3.3h-0.9c-0.3-1.6-1.5-2.6-3-2.6c-0.8,0-1.6,0.3-2.2,0.9c-0.8,0.8-0.9,1.7-0.9,4.2c0,2.4,0.1,3.3,0.9,4.2
				c0.6,0.6,1.3,0.9,2.2,0.9c1.5,0,2.7-1,3-2.6h0.8C-362.8,83.4-364.3,84.7-366.3,84.7z"/>
			<path class="st2" d="M-349.9,83.5c-0.8,0.8-1.8,1.2-2.9,1.2c-1.1,0-2.1-0.4-2.9-1.2c-1-1-1.1-2.1-1.1-4.6c0-2.6,0-3.6,1.1-4.6
				c0.8-0.8,1.8-1.2,2.9-1.2c1.1,0,2.1,0.4,2.9,1.2c1,1,1.1,2.1,1.1,4.6C-348.9,81.4-348.9,82.4-349.9,83.5z M-350.6,74.7
				c-0.6-0.6-1.3-0.9-2.2-0.9c-0.8,0-1.6,0.3-2.2,0.9c-0.8,0.8-0.9,1.7-0.9,4.2c0,2.4,0.1,3.3,0.9,4.2c0.6,0.6,1.3,0.9,2.2,0.9
				c0.8,0,1.6-0.3,2.2-0.9c0.8-0.8,0.9-1.7,0.9-4.2C-349.7,76.4-349.8,75.5-350.6,74.7z"/>
			<path class="st2" d="M-341.7,74.6v9.9h-0.9V73.1h0.9l6.6,9.9v-9.9h0.9v11.4h-0.9L-341.7,74.6z"/>
			<path class="st2" d="M-324.5,84.6h-0.9V73.9h-3.4v-0.8h7.7v0.8h-3.4V84.6z"/>
			<path class="st2" d="M-315.7,73.1h6.9v0.8h-6.1v4.5h5.2v0.8h-5.2v4.6h6.1v0.8h-6.9V73.1z"/>
			<path class="st2" d="M-302,74.6v9.9h-0.9V73.1h0.9l6.6,9.9v-9.9h0.9v11.4h-0.9L-302,74.6z"/>
			<path class="st2" d="M-287.8,73.1h0.9v11.4h-0.9V73.1z"/>
			<path class="st2" d="M-273.5,83.5c-0.7,0.7-1.7,1-2.9,1h-3.8V73.1h3.8c1.2,0,2.2,0.4,2.9,1c1.2,1.2,1.1,3,1.1,4.5
				C-272.4,80.2-272.3,82.4-273.5,83.5z M-274.1,74.8c-0.7-0.7-1.5-0.9-2.5-0.9h-2.8v9.9h2.8c0.9,0,1.8-0.2,2.5-0.9
				c0.9-0.9,0.8-2.9,0.8-4.2C-273.2,77.4-273.2,75.7-274.1,74.8z"/>
			<path class="st2" d="M-259.8,83.5c-0.8,0.8-1.8,1.2-2.9,1.2c-1.1,0-2.1-0.4-2.9-1.2c-1-1-1.1-2.1-1.1-4.6c0-2.6,0-3.6,1.1-4.6
				c0.8-0.8,1.8-1.2,2.9-1.2c1.1,0,2.1,0.4,2.9,1.2c1,1,1.1,2.1,1.1,4.6C-258.7,81.4-258.7,82.4-259.8,83.5z M-260.5,74.7
				c-0.6-0.6-1.3-0.9-2.2-0.9c-0.8,0-1.6,0.3-2.2,0.9c-0.8,0.8-0.9,1.7-0.9,4.2c0,2.4,0.1,3.3,0.9,4.2c0.6,0.6,1.3,0.9,2.2,0.9
				c0.8,0,1.6-0.3,2.2-0.9c0.8-0.8,0.9-1.7,0.9-4.2C-259.6,76.4-259.6,75.5-260.5,74.7z"/>
			<path class="st2" d="M-249.6,84.7c-1.7,0-2.8-0.5-3.8-1.5l0.6-0.6c1,1,1.9,1.3,3.2,1.3c1.8,0,2.9-0.9,2.9-2.4
				c0-0.7-0.2-1.2-0.6-1.6c-0.4-0.3-0.7-0.5-1.7-0.6l-1.3-0.2c-0.9-0.1-1.5-0.4-2-0.8c-0.6-0.5-0.9-1.2-0.9-2.1
				c0-1.9,1.3-3.1,3.5-3.1c1.4,0,2.3,0.4,3.3,1.2l-0.6,0.6c-0.7-0.6-1.4-1.1-2.8-1.1c-1.7,0-2.6,0.9-2.6,2.4c0,0.7,0.2,1.2,0.6,1.5
				c0.4,0.3,1.1,0.6,1.7,0.7l1.2,0.2c1.1,0.1,1.6,0.4,2,0.8c0.6,0.5,1,1.3,1,2.2C-245.7,83.4-247.2,84.7-249.6,84.7z"/>
			<path class="st2" d="M-237.2,81.8c-1.4,0-2.6-1.2-2.6-2.6c0-1.4,1.2-2.6,2.6-2.6c1.4,0,2.6,1.2,2.6,2.6
				C-234.6,80.6-235.7,81.8-237.2,81.8z"/>
			<path class="st2" d="M-222.1,81.8h-5.3l-1,2.8h-0.9l4.2-11.4h0.8l4.2,11.4h-0.9L-222.1,81.8z M-227.1,81h4.8l-2.4-6.7L-227.1,81z
				"/>
			<path class="st2" d="M-208.3,83.5c-0.7,0.7-1.7,1-2.9,1h-3.8V73.1h3.8c1.2,0,2.2,0.4,2.9,1c1.2,1.2,1.1,3,1.1,4.5
				C-207.2,80.2-207.1,82.4-208.3,83.5z M-208.9,74.8c-0.7-0.7-1.5-0.9-2.5-0.9h-2.8v9.9h2.8c0.9,0,1.8-0.2,2.5-0.9
				c0.9-0.9,0.8-2.9,0.8-4.2C-208,77.4-208,75.7-208.9,74.8z"/>
			<path class="st2" d="M-198.9,84.6l-3.8-11.4h0.9l3.2,9.9l3.2-9.9h0.9l-3.8,11.4H-198.9z"/>
			<path class="st2" d="M-189.3,73.1h6.9v0.8h-6.1v4.5h5.2v0.8h-5.2v4.6h6.1v0.8h-6.9V73.1z"/>
			<path class="st2" d="M-172.4,79.3h-3.1v5.3h-0.9V73.1h4.3c1.9,0,3.3,1.1,3.3,3.1c0,1.7-1,2.8-2.6,3.1l2.8,5.3h-1L-172.4,79.3z
				 M-172.2,73.9h-3.4v4.6h3.4c1.5,0,2.5-0.7,2.5-2.3C-169.7,74.6-170.7,73.9-172.2,73.9z"/>
			<path class="st2" d="M-159.7,84.6h-0.9V73.9h-3.4v-0.8h7.7v0.8h-3.4V84.6z"/>
			<path class="st2" d="M-150.8,73.1h0.9v11.4h-0.9V73.1z"/>
			<path class="st2" d="M-140.4,84.7c-1.7,0-2.8-0.5-3.8-1.5l0.6-0.6c1,1,1.9,1.3,3.2,1.3c1.8,0,2.9-0.9,2.9-2.4
				c0-0.7-0.2-1.2-0.6-1.6c-0.4-0.3-0.7-0.5-1.7-0.6l-1.3-0.2c-0.9-0.1-1.5-0.4-2-0.8c-0.6-0.5-0.9-1.2-0.9-2.1
				c0-1.9,1.3-3.1,3.5-3.1c1.4,0,2.3,0.4,3.3,1.2l-0.6,0.6c-0.7-0.6-1.4-1.1-2.8-1.1c-1.7,0-2.6,0.9-2.6,2.4c0,0.7,0.2,1.2,0.6,1.5
				c0.4,0.3,1.1,0.6,1.7,0.7l1.2,0.2c1.1,0.1,1.6,0.4,2,0.8c0.6,0.5,1,1.3,1,2.2C-136.5,83.4-138,84.7-140.4,84.7z"/>
			<path class="st2" d="M-130.6,73.1h0.9v11.4h-0.9V73.1z"/>
			<path class="st2" d="M-122.1,74.6v9.9h-0.9V73.1h0.9l6.6,9.9v-9.9h0.9v11.4h-0.9L-122.1,74.6z"/>
			<path class="st2" d="M-101.5,83.3c-0.8,0.8-1.8,1.3-3,1.3c-1.1,0-2.1-0.4-2.9-1.2c-1-1-1.1-2.1-1.1-4.6c0-2.6,0-3.6,1.1-4.6
				c0.8-0.8,1.8-1.2,2.9-1.2c2,0,3.6,1.3,3.9,3.3h-0.9c-0.3-1.6-1.5-2.6-3-2.6c-0.8,0-1.6,0.3-2.2,0.9c-0.8,0.8-0.9,1.7-0.9,4.2
				c0,2.4,0.1,3.3,0.9,4.2c0.6,0.6,1.3,0.9,2.2,0.9c0.9,0,1.8-0.4,2.4-1.1c0.5-0.6,0.7-1.3,0.7-2.3v-1h-3.1v-0.8h3.9v1.9
				C-100.5,81.8-100.8,82.6-101.5,83.3z"/>
			<path class="st2" d="M-91.7,81.8c-1.4,0-2.6-1.2-2.6-2.6c0-1.4,1.2-2.6,2.6-2.6c1.4,0,2.6,1.2,2.6,2.6
				C-89,80.6-90.2,81.8-91.7,81.8z"/>
			<path class="st2" d="M-79.5,84.7c-1.7,0-2.8-0.5-3.8-1.5l0.6-0.6c1,1,1.9,1.3,3.2,1.3c1.8,0,2.9-0.9,2.9-2.4
				c0-0.7-0.2-1.2-0.6-1.6c-0.4-0.3-0.7-0.5-1.7-0.6l-1.3-0.2c-0.9-0.1-1.5-0.4-2-0.8c-0.6-0.5-0.9-1.2-0.9-2.1
				c0-1.9,1.3-3.1,3.5-3.1c1.4,0,2.3,0.4,3.3,1.2l-0.6,0.6c-0.7-0.6-1.4-1.1-2.8-1.1c-1.7,0-2.7,0.9-2.7,2.4c0,0.7,0.2,1.2,0.6,1.5
				c0.4,0.3,1.1,0.6,1.7,0.7l1.2,0.2c1.1,0.1,1.6,0.4,2,0.8c0.6,0.5,1,1.3,1,2.2C-75.6,83.4-77.1,84.7-79.5,84.7z"/>
			<path class="st2" d="M-64,81.8h-5.3l-1,2.8h-0.9l4.2-11.4h0.8l4.2,11.4H-63L-64,81.8z M-69,81h4.8l-2.4-6.7L-69,81z"/>
		</g>
	</g>
	<g>
		<g>
			<path class="st2" d="M-275.9,44.9c-9.1,0-17.4-3.4-23.6-9.6c-8.7-8.7-8.7-17.7-8.7-37.3c0-19.6,0-28.6,8.7-37.3
				c6.2-6.2,14.5-9.6,23.6-9.6c16.6,0,28.9,10.1,32,27.5H-254c-2.5-11.3-10.4-18.7-21.9-18.7c-6.1,0-11.9,2.3-15.9,6.5
				c-5.8,6-6.5,12.3-6.5,31.6s0.6,25.7,6.5,31.6c4,4.1,9.8,6.5,15.9,6.5c11.5,0,19.7-7.4,22.2-18.7h9.8
				C-246.9,34.8-259.5,44.9-275.9,44.9z"/>
			<path class="st2" d="M-156.7,44.2l-7.4-20.9h-40.3l-7.4,20.9h-10.5l33.9-92.2h8.3l33.8,92.2H-156.7z M-184.1-34l-17.4,48.7h34.5
				L-184.1-34z"/>
			<path class="st2" d="M-94.7,44.9c-13.9,0-22.9-3.5-31.6-12.2l6.7-6.7c7.6,7.6,14.8,10.1,25.1,10.1c13.5,0,21.8-6.3,21.8-17.1
				c0-4.8-1.4-8.9-4.4-11.5c-3-2.6-5.3-3.4-12-4.4l-10.8-1.7c-7.3-1.2-13-3.5-17-7c-4.7-4.1-7-9.8-7-17.2c0-15.7,11.3-26,29.5-26
				c11.8,0,19.6,3,27.5,10.1l-6.3,6.3c-5.7-5.2-11.8-7.9-21.5-7.9c-12.3,0-19.4,6.9-19.4,17.1c0,4.5,1.3,8.2,4.1,10.6
				c2.9,2.5,7.6,4.3,12.4,5.1L-87.4-6c8.7,1.3,13,3.1,16.8,6.5c5.1,4.3,7.8,10.6,7.8,18.3C-62.8,35-75.5,44.9-94.7,44.9z"/>
		</g>
	</g>
	<path class="st3" d="M-369.6-48c0-2.6,2.1-4.7,4.7-4.7h37.6c2.6,0,4.7,2.1,4.7,4.7v21.6c0,2.6-2.1,4.7-4.7,4.7c0,0-2,0.6-4.5-1.4
		c-2.5-1.9-35.9-21.5-35.9-21.5S-369.6-46.4-369.6-48z"/>
	<path class="st0" d="M-369.6-12.9c0-2.6,2.1-4.7,4.7-4.7h37.6c2.6,0,4.7,2.1,4.7,4.7V8.7c0,2.6-2.1,4.7-4.7,4.7c0,0-2,0.6-4.5-1.4
		c-2.5-1.9-35.9-21.5-35.9-21.5S-369.6-11.3-369.6-12.9z"/>
	<path class="st1" d="M-369.6,22.1c0-2.6,2.1-4.7,4.7-4.7h37.6c2.6,0,4.7,2.1,4.7,4.7v21.6c0,2.6-2.1,4.7-4.7,4.7c0,0-2,0.6-4.5-1.4
		c-2.5-1.9-35.9-21.5-35.9-21.5S-369.6,23.7-369.6,22.1z"/>
</g>
</svg>
